<?xml version="1.0" encoding="utf-8"?>
<!-- Generator: Adobe Illustrator 22.1.0, SVG Export Plug-In . SVG Version: 6.00 Build 0)  -->
<svg version="1.1" id="Layer_1" xmlns="http://www.w3.org/2000/svg" xmlns:xlink="http://www.w3.org/1999/xlink" x="0px" y="0px"
	 viewBox="0 0 264.5 80.6" style="enable-background:new 0 0 264.5 80.6;" xml:space="preserve">
<style type="text/css">
	.st0{fill:#FFFFFF;}
</style>
<g>
	<g>
		<path class="st0" d="M34.4,7.8c5.8-0.5,11.5,0.9,15.8,2.5c4.5,1.7,8.1,4.2,11.2,7c3.3,3,5.7,6.4,7.9,10.4
			c2.2,4.1,3.5,8.8,3.8,14.4c0.4,8.8-2.1,16-5.6,21.5C63.8,69.4,59,73.4,53,76.6c-4,2.1-8.9,3.4-14.4,3.9
			c-5.9,0.5-11.4-0.7-15.8-2.4c-4.4-1.6-8.3-4.1-11.2-7C5.5,65,0.6,57.5,0,46.2c-0.6-11.6,4-20.2,9.6-26.5c2.8-3.1,6.3-5.8,10.4-7.9
			C24.1,9.7,28.7,8.3,34.4,7.8 M30.6,9.6c-3.8,0.8-7,2-9.8,3.4c-4.2,2.1-7.1,4.7-10,7.6c-5.7,5.7-9.6,14.8-9.3,25
			C1.5,51,3,55.5,4.9,59.4c1.9,4,4.5,7.2,7.5,10.2c2.9,3,6.4,5.3,10.6,7c4.3,1.7,9.3,2.8,15,2.5c10.3-0.5,18.6-5,24.1-10.8
			c5.8-6.1,10-13.8,9.7-25.6c-0.1-5.3-1.5-10.1-3.6-14c-2.2-4.1-4.4-7.1-7.6-10c-3.1-2.8-6.4-5.2-10.7-6.9
			c-4.1-1.7-9.6-2.9-15.2-2.5C33.4,9.2,32,9.3,30.6,9.6"/>
		<path class="st0" d="M35.7,17.8c8.2-0.4,14.7,3.2,19,7.1c4.5,4,7.9,10,8.2,18c0.4,8.1-2.8,14.4-6.9,18.8
			c-4.2,4.6-10.1,7.9-17.8,8.5c-7.8,0.6-14.7-2.3-19.2-6.4c-2.2-2.1-4.3-4.4-5.8-7.4c-2.1-4.2-3.6-9.9-2.7-16.1
			C12,30.8,17,24.9,24,20.9C27.3,19.1,30.9,18.1,35.7,17.8 M61.3,39.7c-0.8-4.5-2.9-8.6-5.7-11.7c-2.8-3.1-6.2-5.8-10.2-7.2
			c-4.5-1.5-9.7-2.2-14.8-0.9c-5.9,1.4-10.8,5.1-14,9.1c-1.2,1.5-1.9,3.1-2.6,4.7c-1,2.1-1.6,4.1-2,6.7C11.9,41,11.4,42,12,42.4
			c0.2-0.5,0.2-1.3,0.2-2c0.3-0.2,1-0.1,1.4-0.3c0-0.6,0-1,0.1-1.4c0.8-0.1,1.2-0.9,2.2-0.5c0.1,0.5,0.6,0.7,0.9,0.9
			c0.1,0.8,0.3,1.6,0.5,2.3c0.3-0.2,0.2-0.5,0.6-0.6c0.4-0.1,1.1,0.2,1.6-0.1c0.4-1.9-1-5.8,2.1-5.4c0.4-0.2-0.1-1.1,0.4-1.3
			c0.1,0.4-0.2,0.7-0.1,1.1c0.2,0.6,0.9,0.9,1,1.6c0,0.3-0.1,0.7-0.1,1c0,0.6,0,1,0,1.7c0.1,0.4,0.6,0.3,0.7,0.6
			c-0.1,0.3-0.8,0-0.8,0.5c0.2,0.5,0.9,0.4,1.1,0.9c0.1-1.1,0-2.2,0.1-3.5c0.2-0.3,0.8-0.2,0.9-0.6c-0.3-0.3-1.1-0.1-1.2-0.5
			c0.1-0.3,0.4-0.3,0.5-0.6c-0.6-0.7,0.2-1.5,1.1-1.4c0.1-0.2,0.2-0.4,0.1-0.7c-0.6-0.5-1.5-0.5-1.8-1.2c-0.4-1,0.2-1.8,0.5-2.6
			c0.2-0.5,0.3-1.2,0.5-1.7c0.5-1,1.6-1.2,2-1.8c0.1-0.8-0.7-1.5-0.8-2.3c-0.2-0.9,0.4-1.9,1.3-2c2-0.4,2.2,1.9,2.6,3.2
			c2.4-0.2,3.4-1.7,4.7-2.8c0.1-0.1,0.4-0.1,0.5-0.1c0.1-0.4,0.6-0.8,0.7-1.3c0-0.2-0.1-0.4,0-0.6c0.2-0.7,0.9-1.5,1.5-0.7
			c0.6,0.8-0.2,2.2-0.2,3.1c-1.9,1.3-3.1,3.4-5.1,4.6c-0.4,0.8-0.6,2.2,0,2.9c-0.8,1,0.3,1.9,0.3,3.2c0,0.2-0.2,0.4-0.1,0.6
			c0,0.2,0.2,0.4,0.2,0.6c0,0.8-0.5,1.3-0.5,2.2c-1.4,0.5-0.5,3.5-0.6,4.8c0,0.3-0.4,0.7-0.3,0.9c0.1,0.9,1.5,1.3,2.4,1.2
			c0.2-0.2,0.1-0.7,0.2-0.9c0.4-0.2,1.3,0.2,1.4-0.3c-0.7-0.7-3.5,0.5-3.5-0.9c-0.1-0.3,0.4-0.1,0.5-0.3c0.1-0.1,0.3-0.9,0.3-0.8
			c-0.1-0.4-0.6-0.1-0.6-0.5c0.1-0.2,0.5,0,0.5-0.1c0.1-0.7-0.1-2.2,0.6-2.6c1.7-0.5,3.5,0.1,3.3,2c0.7,0.2,1.4,0.1,2.2,0
			c0.1-1.4-0.2-2.6,0.1-3.8c0.5,0,0.6-0.3,0.9-0.5c0.4,0.1,1.1-0.3,1.7-0.2c0.5,0.1,0.5,0.5,0.9,0.6c0-1.8,0.2-3.2,0.1-4.7
			c0-0.6-0.3-1.1,0.1-1.5c0.4-0.3,1.2-0.2,1.9-0.2c0.2,0.5,0.8,0.6,1.4,0.8c-0.4,0.8-0.2,1.8-0.3,2.8c-0.1,1.9,0.1,3.9,0.1,5.8
			c0.5,0.2,1.3,0.2,1.8,0.1c0.1-1.2-0.1-2.5-0.1-3.5c0.6-0.2,1.4-0.4,2-0.6c1.2,0.4,1.2,2.6,1,4c-0.5-0.8,0.1-1.9-0.3-2.6
			c-0.4-0.2-1.3-0.2-1.8-0.1c0.2,2.2-0.3,4.7,0,7c0.1,0.2,0.5,0.1,0.8,0.1c0.1-0.2,0-0.6,0.3-0.7c0.3,0,0.6-0.1,0.7-0.2
			c0.1-1.2-0.3-2.7,0.3-3.5c0.1,0.2,0,0.6,0.1,0.7c0.9,0.3,2.1-0.3,2.4,0.5c0.2,0.4-0.3,1.1,0.1,1.5c0.3,0.3,1.2,0,1.6,0.3
			c0,0.3,0,0.5,0.1,0.7c0.4,0.1,1.1,0,1.5,0.1c0.6-0.5,0.1-1.3,0.4-2c0.7,1-0.2,2-0.1,2.9c0.2,0.1,0.4,0.1,0.6,0.1
			c0.3-0.2,0.2-0.8,0.2-1.2c0.2-0.1,0.5-0.1,0.5-0.3c0.2-0.3-0.1-1.1,0.2-1.3c0.1,0.5,0,0.9,0.1,1.5c-0.2,0.3-0.4,0.7-0.3,1.3
			c1.3,0.4,0.8-0.9,0.7-1.4c0.3-0.1,0.6,0.2,0.7,0c0.3-0.5-0.1-1,0.2-1.4c0.6,1-0.7,2.1-0.2,2.8c0.9,0.2,0.4-0.8,0.7-1.1
			c0.3,0.1,0.7,0.1,0.9,0c0.4-0.3-0.3-1.4,0.3-1.5c0.2,0.3,0,0.9,0.2,1.4c0.2,0,0.3,0.2,0.5,0.1C61.6,41.6,61.5,40.7,61.3,39.7
			 M36.6,20.3c0.1,0.1,0.3,0.1,0.5,0.1C37.2,20,36.6,20,36.6,20.3 M36.4,21.1c0.1,0,0.1,0.1,0.3,0.1C36.8,20.9,36.4,20.9,36.4,21.1
			 M36,21.9c-0.4,0.9-1.2,1.3-1.9,1.8c0.2,0.9-1.4,0.9-2,1.6c-0.1,0.2,0,0.4-0.3,0.5c-0.9,0.1-2.1,0-2.2,0.9c-0.2-0.3-0.5-0.2-0.7,0
			c-0.1-0.5-0.5-0.6-0.5-1.2c0.1,0,0.1-0.1,0.1-0.1c0.3-0.1,0.6,0,0.9-0.1c0-0.7-0.4-0.9-0.5-1.5c-0.3,0-0.4,0-0.5,0.1
			c-0.1,0.4,0.3,0.7,0.1,1.1c-0.3,0.1-0.4-0.3-0.6-0.1c-0.1,0.5-0.9,1.4-0.8,2c0.1,0.5,0.8,0.6,1.3,0.9c0.3,0,0.2-0.4,0.5-0.3
			c-0.2,0.9-0.4,2.1-0.8,2.8c-0.2,0.3-0.4,0.3-0.5,0.5c-0.1,0.4,0.2,0.6,0.3,1c-0.1,0.3-0.3,0.4-0.5,0.5c-0.2,0.8-0.9,1.3-0.9,2
			c0.6,0.1,0.4-0.7,0.9-0.7c-0.2,0.5-0.4,1.5-0.1,1.9c0.5,0.2,1.1,0,1.2-0.5c0.1,0.7,1.2,0.4,1.8,0.5c0,0.5-0.6,0.3-0.9,0.5
			c-0.1,0.9,0,1.8,0.3,2.6c0.4,0,0.5,0.3,0.7,0.5c0.4-0.1,0.4-0.6,0.5-1c0-0.2-0.2-0.2-0.2-0.5c0.5-0.9-0.1-2.1,0.4-3.2
			c-0.3-0.8-1.4-0.9-2.2-1.2c-0.5,0.2-0.4,0.9-0.6,1.4c-0.2-0.4,0.1-1-0.1-1.3c-0.3-0.2-0.7,0-0.9,0.1c0.1-0.4,0.4-0.6,0.9-0.6
			c0-0.2-0.2-0.2-0.2-0.5c0.1-0.1,0.2-0.1,0.3-0.1c0-0.3-0.3-0.2-0.3-0.5c0-0.3,0.4-0.1,0.4-0.5c-0.1-0.2-0.4-0.2-0.4-0.5
			c0.7-0.9,0.9-2.3,1.4-3.3c0.2,0.6-0.3,1.1-0.2,1.6c0.1,0.8,1.1,1.3,1.9,1.3c0.3-0.6-0.2-1.2,0-1.8c-0.3-0.2-0.7,0.2-0.8-0.2
			c0.5-0.3,1-0.6,1.4-0.9c0-0.3,0.1-0.5,0.3-0.6c0.9,0,1.3-0.9,1.8-1.4c0.7-0.6,1.7-1.1,2-2.2c0.2-0.1,0.6,0,0.8-0.1v-1
			C36.5,21.7,36.2,21.8,36,21.9 M26.7,24.1c0.3,0.3,0.5,0.6,0.5,1c0.2-0.1,0.3,0.1,0.4,0c0-0.5-0.4-0.6-0.3-1.1
			c0.5,0.1,0.7-0.6,1-0.9C27.4,22.8,26.6,23.2,26.7,24.1 M31.3,25.4C31.4,25.7,31.4,25.2,31.3,25.4 M28,28c-0.2-0.3-0.5-0.8-0.9-0.6
			C27.4,27.6,27.6,27.9,28,28 M25.5,28.1c-0.2,1.6-1.3,2.3-1.3,4c0.5,0.5,1.1,1.5,2,1.1c-0.3-0.7-0.7-0.7-0.7-1.3
			c0-0.4,0.7-1,0.2-1.6c0.2-0.2,0.3-0.5,0.5-0.6c0.6,0.2,1.7,0.2,1.8-0.5C27.8,28.3,26.5,27.2,25.5,28.1 M29.1,29.6
			c0,0.4,0.5,0.4,0.5,0.8c-0.2,0.3-0.8,0.3-0.9,0.7c0.1,0.3,0.6,0.1,0.7,0.4c0,0.3-0.6,0.1-0.6,0.4c0.2,0.2,0.4,0.3,0.2,0.6
			c0.7,0,1.1,0.3,1.7,0.5c-0.5-0.9,0.7-1.5,0.6-2.2C30.1,30.9,29.9,29.6,29.1,29.6 M42.5,29.8h1c-0.1-0.3-0.7-0.1-1-0.1V29.8z
			 M26.6,32.5c0.6-0.1,0.8-1.9-0.1-2.2C26,30.7,25.5,32.8,26.6,32.5 M42.1,30.9c0.2,2.2,0.1,4.5,0.1,6.8c-0.1,1.7-0.1,3.3,0.2,4.8
			c0.3,0.1,0.4,0,0.7,0c0.1-0.2,0.1-0.5,0.1-0.7c0.2-0.1,0.3,0.1,0.5,0.1c0-0.2-0.1-0.6,0.1-0.7c0.2,0,0.2,0.2,0.4,0.1
			c-0.1-1.1-0.2-2,0.5-2.6c0.2-2.4,0.3-5.9-0.1-7.9C43.6,30.8,42.7,30.5,42.1,30.9 M31,32.3c0.4,0.3,0.1,1.3,0.7,1.4
			c0.3-0.7-0.2-1.3-0.5-1.7C31.2,32.1,31,32.1,31,32.3 M31.5,36c0.4,0,0.4-0.4,0.5-0.7c-0.4-0.2-0.2-0.8-0.4-0.9
			C31.4,34.9,31.1,35.5,31.5,36 M48.4,35.4c0.2,0.1,0.6,0.1,0.7,0C49.1,35,48.4,35,48.4,35.4 M39.5,35.6c0,0.1,0,0.1,0.1,0.2
			c0.5,0,0.9-0.1,1.2-0.2C40.4,35.6,39.8,35.4,39.5,35.6 M20.4,36.1c0.6,0.1,1.4,0.3,1.8-0.1C21.8,35.7,20.8,35.6,20.4,36.1
			 M28.8,36.3c-0.4-0.7-0.9,0.2-1.2,0.5c0.1,0.3,0.3,0.4,0.4,0.7h0.5C28.7,37.1,28.7,36.6,28.8,36.3 M47.3,37.3
			c0.3-0.2,0.2-1.1,0-1.3C47.1,36.4,47.3,36.8,47.3,37.3 M25,36.5c0.2,0.2,0.5,0.4,0.9,0.3c0.1-0.2,0.4-0.3,0.3-0.7
			C25.8,36.1,25.1,36.2,25,36.5 M38.7,36.3c0,0.3,0.6,0.1,0.4,0.6c0,0.2-0.3,0.1-0.5,0.1c-0.1,1.1,0,2.2,0.2,2.9
			c0.3,1.2-0.1,2.5,0.3,3.7c0.2,0,0.3,0.1,0.5,0.1c0.2-0.2,0-0.6,0-0.9c0-0.3,0.4-0.3,0.4-0.5c0.1-1.7-0.2-4-0.1-6
			C39.7,36.2,38.8,35.9,38.7,36.3 M40.5,36.3c-0.1,1.7-0.1,4.6,0,6.1c0.3,0.1,1,0.1,1.3,0c0.1-1.4-0.1-4.4-0.1-6.1
			C41.3,36.3,40.7,36,40.5,36.3 M20.1,36.7c0,1.4,0,2.8-0.1,4.5c1,0.4,1.8-0.1,2.5-0.5c0.3-1.2,0.2-2.7,0.1-3.8
			c-0.2-0.1-0.5-0.2-0.8-0.1c-0.2,0.5,0,2-0.2,2.4c-0.1-0.5-0.1-1.7,0-2.4C21.2,36.5,20.5,36.6,20.1,36.7 M26.5,36.7
			c0.2,0,0.3,0.2,0.3-0.1C26.7,36.6,26.5,36.6,26.5,36.7 M26.7,37.3c-0.1,0.2,0.2,0.1,0.3,0.1C27,37.2,26.7,37.2,26.7,37.3
			 M32.8,38.2c0.6,0.2,1.9,0.2,2.4-0.1C34.6,38,33.2,37.6,32.8,38.2 M24.7,38.4c0,1.2-0.1,3.9,0.1,5.4c0.2,0.1,0.7,0.2,1,0.1
			c0.1-1.8,0-3.6,0.1-5.5C25.6,38.1,25,38.1,24.7,38.4 M26.3,38.2c-0.1,0-0.2,0.1-0.2,0.2c0,2,0,3.4,0.1,5.6c0.4,0.2,1,0.1,1.4-0.1
			c-0.1-1.8,0.3-3.8,0-5.6C27.3,38.1,26.8,38.2,26.3,38.2 M47.2,38.6c0.2,1.3-0.4,3.2,0.1,4.5c0.4-1.1-0.1-3.2,0.1-4.6
			c0-0.1-0.1-0.1-0.1-0.1C47.3,38.4,47.2,38.5,47.2,38.6 M29,39.8c0.2-0.2,0.3-0.9,0.1-1.2h-0.3C28.7,38.9,28.6,39.7,29,39.8
			 M32.7,38.8c-0.1,0-0.1,0.1-0.1,0.1c0.3,0.9-0.5,2.5,0.5,2.8c0.3-1-0.3-2.1,0.2-2.7c0.4,0.5-0.3,2.1,0.7,2c0-0.5,0-0.7,0-1.2
			c0.3-0.3,0.9-0.1,1-0.5c0.1,0.2,0.2,0.3,0.5,0.3c0.1-0.1,0.2-0.3,0.1-0.6C35,38.7,33.6,38.7,32.7,38.8 M14.1,40.1h0.3
			c0-0.3,0.1-0.5,0.1-0.8C14.1,38.8,13.9,39.7,14.1,40.1 M16.6,39.8c0.1-0.2,0.1-0.3,0.1-0.5c-0.2-0.2-0.7-0.1-1-0.1
			C15.8,39.5,16.1,39.8,16.6,39.8 M44.4,39.5c0.3,0.5,1.8,0.2,2.3,0.1C46.2,39.3,45,39.4,44.4,39.5 M15,41.4
			c0.2-0.6,0.1-1.2,0.3-1.7c-0.1,0-0.1-0.1-0.3-0.1C14.9,40.2,14.4,41.1,15,41.4 M29.5,40.1c0.1,0.1,0.2,0.1,0.3,0.1
			c0-0.2,0-0.3-0.1-0.3C29.7,40.1,29.5,40,29.5,40.1 M50,40.1c-0.1,0.6-0.3,1.3-0.3,2c0.3,0.3,0.7,0.4,1.2,0.5
			c0.2,0.4,0.4,0.7,1,0.6c0.2-0.9,0.2-2.2,0-3.1C51.4,40,50.4,40,50,40.1 M34.5,40.1c0,0.1-0.1,0.1,0,0.2c1,0.1,2.9,0.4,3.9-0.1
			C37.1,40.2,35.6,40,34.5,40.1 M15.8,41c0.1-0.2,0.1-0.5,0.3-0.5c0.3,0,0.2,0.3,0.5,0.3c0.1-0.1,0.1-0.3,0.1-0.5
			C16.1,39.8,14.8,40.5,15.8,41 M44.5,40.3c-0.2,1-0.2,2.1,0.1,3H45c0.1-0.2,0-0.2,0-0.5c0.8-0.2,0.9-1.1,1.5-1.6
			c0-0.3-0.4-0.3-0.5-0.5c0.3-0.1,0.6,0,0.8-0.3C46.2,40.2,45.1,40.2,44.5,40.3 M12.6,40.7c-0.1,0.6-0.1,1.5,0.1,2
			c-0.2,0.1-0.6,0.1-0.9,0.1c-0.1,0.2-0.2,0.7,0,0.8c0.6-0.2,1.1,0,1.8,0c0.3-0.2,0.4-0.6,0.9-0.6c0-0.9-0.1-1.4,0-2.2
			C13.9,40.6,13,40.6,12.6,40.7 M34.3,42c0.2,0.2,0.6,0.2,0.8,0.3c0,0.3,0.1,0.5,0.1,0.7c0.7,0.1,1.5,0.1,2.4,0.1
			c0.3,0.2,0.3,0.5,0.7,0.5c0.3-0.7,0.2-2.3,0-2.8c-1.1-0.1,0.1,1.5-0.6,1.6c-0.4-0.5,0.4-1.5-0.5-1.6c-0.5,0.2,0.1,1-0.3,1.2
			c-0.2-0.3,0.1-1.1-0.4-1.1c-0.4,0.2,0,1.1-0.3,1.4c-0.4-0.3,0.3-1.3-0.4-1.4c-0.4,0.2-0.1,1-0.3,1.4c-0.3-0.3-0.2-1-0.3-1.4
			C34.4,40.4,34.1,41.1,34.3,42 M29.4,41.3c0,0.3-0.1,0.3,0,0.5c0.3,0.2,1,0.1,1.2-0.1C30.6,41,29.8,41.1,29.4,41.3 M18.3,42.3
			c0.3,0,0.5,0,0.7-0.1c0.1-0.3,0.1-0.7,0.3-0.9C18.4,40.8,17.7,41.7,18.3,42.3 M23.4,41.5c-0.1-0.3-0.7-0.1-1.1-0.1
			C22.5,41.6,23.3,41.9,23.4,41.5 M19.5,41.8c-0.1,0-0.1,0.1-0.1,0.2c0.6,0.5,2.2,0.2,3,0.1C21.9,41.6,20.2,41.9,19.5,41.8
			 M15.7,42.2c-0.4-0.2-0.9-0.1-1.1,0.2c0,0.2,0.1,0.4,0.1,0.7c0.2,0.2,0.5,0.1,0.9,0.1c0.1-0.1,0-0.4,0.2-0.5
			c0.2-0.1,0.5-0.1,0.7-0.1c0.1,0.4,0.6,0.8,1.2,0.5c0-0.6-0.1-1.1-0.6-1.2c-0.2,0-0.2,0.2-0.5,0.2C16.3,41.8,16,41.8,15.7,42.2
			 M52.6,43.2c0.9,0.2,2,0,2.8,0.3c0.2-0.9-1.1-0.3-1.4-0.7c-0.1-0.3,0-0.3,0-0.6C53.6,42,53,42,52.6,42
			C52.6,42.5,52.4,42.9,52.6,43.2 M23.4,42.4c0-0.3-0.3-0.2-0.5-0.2C22.9,42.4,23.1,42.4,23.4,42.4 M29,43.5
			c0.2-0.3,0.2-1.1-0.2-1.2C28.6,42.7,28.7,43.4,29,43.5 M29.6,43c0.3,0.1,0.6,0,0.7-0.1C30.5,42.2,29.3,42.3,29.6,43 M20.7,43
			c-0.2,0-0.2-0.3-0.4-0.3c-0.8,0.2-2.4-0.7-2.4,0.4c0.7,0.4,2.4,0,2.8,0.7h1.5c0.3-0.2,0.2-0.7,0.1-0.9c-0.3-0.1-0.5-0.1-0.8-0.1
			c-0.1,0,0,0.3-0.1,0.3C21.2,42.8,20.9,42.9,20.7,43 M59.6,43.3c0.1,0,0.1,0.1,0.1,0.2c0.6,0.3,0.8-0.4,1.5-0.3
			c0.1,0.4-0.2,0.7-0.1,0.9c0.3,0,0.5,0,0.6-0.1C62,42.7,60.1,42.5,59.6,43.3 M22.9,43c0.1,0.1,0.3,0.1,0.5,0.1
			C23.4,42.9,22.9,42.8,22.9,43 M45.4,43c-0.1,0.2-0.1,0.5-0.3,0.6c-0.7,0.3-1.7,0-2.6,0.1c-0.2-0.1-0.1-0.5-0.3-0.6
			c-0.8,0-1.5-0.1-2.2-0.1c-0.2,0.2-0.3,0.8-0.1,1.1c2.3,0.2,3.6,0,6,0c0.2,0,0.2-0.2,0.3-0.3c0.1,0.4,1,0.5,1.2,0.1
			c-0.4-0.1-0.6-0.4-0.7-0.8C46.2,42.9,45.8,42.9,45.4,43 M49,43.5c-0.4,0.2-0.9,0.2-1.4,0.3c0.2,0.6,1.9,0.4,2.4,0.1
			c0.4,0.4,1.2,0.1,1.9,0.1c0.8,0,1.8,0.4,2.2-0.3c-0.8-0.2-2.1-0.1-3.1-0.2c-0.2-0.1-0.1-0.4-0.2-0.5C50.1,43.1,49,42.5,49,43.5
			 M29.6,43.8c0.1,0.2,0.7,0.2,0.7-0.1C30.2,43.5,29.5,43.4,29.6,43.8 M33.8,43.5c-0.2,0.1-0.2,0.2-0.2,0.5c1,0.3,2.8,0.1,3.9,0.1
			C37.1,43.2,35,43.7,33.8,43.5 M22.9,43.7c0.1,0.2,0.5,0.2,0.5-0.1C23.4,43.6,22.8,43.5,22.9,43.7 M14.6,43.8
			c-0.2,0.5,1.6,0.6,1.8,0.1C16.3,43.6,15.1,43.7,14.6,43.8 M16.6,44.1c0.3,0.2,1.3,0.2,1.6,0C18.1,43.7,16.7,43.5,16.6,44.1
			 M18.5,44.1c0.3,0.3,1.5,0.4,1.6-0.1c-0.3-0.3-1-0.2-1.6-0.2C18.6,43.9,18.5,43.9,18.5,44.1 M33.8,44.9c0-0.1,0.1-0.1,0.1-0.1
			c-0.3-0.1-1.2-0.2-1.4,0.1c0,0.6,0.8,0,0.9,0.3c-0.6,0.1-1.2,0.4-0.7,1c0.5-0.1,0.8-0.5,1.3-0.6c-0.3,0.6-1.3,0.5-1.5,1.2
			c-0.1,0.4,0.1,1.1,0.2,1.6c0.5-0.1,1-0.8,1.4-1.4c0.4-0.5,0.9-1.1,1.4-1.5c-0.8,1.4-2,2.6-2.9,3.9c0,0.3,0,0.7,0.1,1.1
			c0.1,1.1-0.3,2.7,0.4,2.9c1.2-2.6,2-5.7,3.3-8.2c-0.9,2.9-1.9,5.6-2.7,8.5c-0.1,0.3,0.4,0.1,0.3,0.4c-0.1,0.7,0.2,1.2-0.1,1.8
			c-0.2,0.5-1,0.7-1.2,1.2c-0.2,0.4,0,0.9,0,1.4c0,1-0.2,2.2,0.1,3c0.6,0.2,0.9-0.1,1.4,0.1c0.4,0.2,0.4,0.8,1.3,0.5
			c0.5-5.2,0.8-10.6,1.3-15.9c0.1,4.6-0.4,10.5-0.5,16.1c0.3,0.2,0.4,0.7,0.6,0.9c1,0.1,1.5,0.3,2,0.9c0.6,0.6,1,1.8,1.7,1.8
			c1.7,0.2,0.7-1.9,0.5-3.1c-1.3-5.6-2.8-12.4-3.9-17.3c1.8,6.5,3.5,13.1,5.2,19.8c1.1,0.6,2,2.2,3.8,1.8c0.8-0.2,1.8-0.7,2.3-1.2
			c-3.6-6.8-7.4-13.6-10.8-20.6c3,4.9,5.8,10.1,8.7,15.2c0.9,1.7,2,3.3,3,4.9c1.3-0.5,2.3-1.3,3.4-2.2c0.3-0.3,0.9-0.6,0.9-0.9
			c0-0.2-0.7-0.8-0.9-1.2c-5-5.3-10-10.7-14.8-16.1c2.9,2.6,5.6,5.4,8.3,8.2c1.4,1.4,2.8,2.7,4.1,4.1c1.3,1.4,2.7,2.9,4.3,4
			c1.3-1.2,2.4-2.6,3.3-4.3c-6.2-4.2-13.2-8-19.2-12.1c2.8,1.4,5.4,3.1,8.1,4.6c1.9,1.1,4,2.1,5.9,3.3c1.9,1.2,3.7,2.4,5.8,3.3
			c0.9-1.4,1.6-3.1,2-4.9c-7.2-2.4-14.7-4.4-22-6.6c-0.3-0.1-0.1,0.2-0.3,0.3c-0.3-0.4-0.8,0.1-1.3-0.1c0.1,0.4-0.1,0.8-0.3,1.2
			c-0.1-0.3,0.2-0.7,0.1-1.2c-0.3-0.1-0.3,0.1-0.4,0.2C35.6,44.6,34.8,44.8,33.8,44.9 M40.2,44.7c0.7,0.5,1.7,0.5,2.5,0.7
			c0.9,0.2,1.7,0.4,2.6,0.7c3.4,1,6.9,1.8,10.4,2.8c1.7,0.5,3.4,1.2,5.2,1.2c0.3-1.6,0.8-3.5,0.5-5.4C54.5,44.5,47.3,44.7,40.2,44.7
			 M11.8,44.7c-0.1,0-0.1,0.1-0.2,0.1c-0.2,0.3,0,0.8,0.1,1.2c0.2,1.6,0.3,3.8,0.9,4.8c3.3-0.8,6.6-1.8,9.7-2.7
			c0.4-0.1,1-0.2,1.3-0.5c0-0.9,0.1-1.8,0-2.6C20.1,44.6,15.8,44.9,11.8,44.7 M25.5,44.7C25,45,25.2,46,25.3,46.5
			c1.4,0.4,3.5,0.1,5.2,0.1c0-0.6-0.1-1.2-0.1-1.8C29,44.8,27.3,44.7,25.5,44.7 M30.9,46.6c0.3,0.1,0.5,0,0.8-0.1
			c0.1-0.6,0.2-1.1,0-1.7C30.6,44.3,30.6,45.9,30.9,46.6 M24.2,44.9c0.2,0.5-0.2,1.5,0.4,1.8c0.4-0.4,0.1-1.1,0.3-1.8
			C24.8,44.8,24.4,44.7,24.2,44.9 M26.1,47.6c0.3,0.3,0.9,0,1,0.4c-0.1,0.3-0.6,0.2-1,0.2c-0.2-0.2-0.2-0.9-0.7-0.6
			c0.2,0.7-0.6,1.3-0.1,1.9c0.7,0.1,1.6-0.6,1.9,0.1c-0.5,0.3-1.6,0-2.1,0.3c0.1,0.4,0.1,0.9,0.3,1.2c-0.4,0.3-0.3,1.1,0,1.5
			c0,0.2-0.3,0.1-0.3,0.3c0.6,0.3,1.8,0,2.8,0.1c0.1-0.3-0.1-0.2-0.1-0.5c0.2-0.1,0.8-0.1,1,0c0,0.4-0.5,0.1-0.5,0.5
			c0.6,0.2,1.3-0.1,1.8,0.3c0,0.2-0.2,0.2-0.3,0.3c0.1,0.1,0.4,0.1,0.4,0.3c0,0.1-0.1,0.2-0.1,0.3c-0.2,0-0.3-0.1-0.5-0.1
			c0,0.5,0,1.1-0.1,1.6c0.2,0.3,0.7,0.2,1,0.1c0.2-2.2-0.1-5.1-0.1-7.7c0-0.4,0.2-0.9-0.3-0.9c-0.6,0.7-1.3,0-2.2,0
			c0,0.4-0.5,0.4-0.9,0.4C26.9,47.3,26,46.8,26.1,47.6 M30.9,47.9c-0.1,0.6,0.1,0.8,0.3,1.1c-0.1,0.1-0.3,0.1-0.3,0.3
			c0,0.2,0.3,0.1,0.3,0.3c-0.1,0.2-0.5,0.2-0.3,0.7c0.2,0.2,0.5,0.2,0.7,0c-0.2-0.4,0.1-0.4,0.2-0.7c-0.3-0.4,0-0.8-0.1-1.2
			c-0.3-0.1-0.2,0.2-0.5,0.1c-0.1-0.1-0.1-0.2-0.1-0.4c0.2-0.1,0.4,0,0.5-0.1c0-0.2,0-0.5-0.1-0.6h-0.2
			C31.5,47.8,31.1,47.7,30.9,47.9 M12.9,51.8c0.6,1.6,1,3.5,2.2,4.5c1.4-0.9,2.9-1.6,4.3-2.4c1.4-0.8,2.9-1.6,4.3-2.5
			c0-0.8,0.3-2.6-0.2-3C19.8,49.3,16.4,50.7,12.9,51.8 M31.1,50.8c0.2,0.3-0.1,0.5-0.1,0.7c0.1,0.2,0.4,0.1,0.3,0.4
			c-0.1,0.1-0.3,0.1-0.3,0.3c-0.1,0.3,0.3,0.1,0.3,0.3c-0.4,0.4-0.4,1.4,0.1,1.7c-0.4,0.1-0.5,0.7-0.3,1.1c0.1,0,0.1,0,0.1,0.1
			c0.3-0.1,0.5-0.2,0.5-0.5c0-0.2-0.3-0.1-0.2-0.3c0.2,0.1,0.3-0.1,0.4-0.1c0.1-0.8-0.8-0.6-0.7-1.4c0.1-0.2,0.5-0.1,0.7-0.2
			c0.1-0.4-0.2-0.5-0.3-0.7C32.2,51.7,31.8,50.2,31.1,50.8 M23.7,52.3c-0.1,0-0.1,0-0.2-0.1c-2.9,1.6-5.5,3.3-8.1,5.1
			c0.4,0.8,0.8,1.4,1.4,2.2c0.4,0.5,1.2,1.7,1.8,1.8c0.2,0,0.4-0.2,0.7-0.3c0.7-0.1,0.6-0.3,1.1-0.5c0.2-0.1,0.4,0,0.5-0.1
			c0.4-0.2,0.8-0.9,1.2-1.3c0.5-0.5,1-0.8,1.2-1.4c-1.1-0.5-1.8-3.1-0.5-4c0.2-0.2,0.5-0.1,0.8-0.3C23.7,53.1,23.7,52.6,23.7,52.3
			 M31.7,53.3c0,0.2,0.1,0.2,0.3,0.2C32.1,53.3,31.8,53.2,31.7,53.3 M25.3,53.5c-0.1,0.2,0.3,0.2,0.3,0.1
			C25.5,53.6,25.5,53.4,25.3,53.5 M25.9,53.7c0.5,0.6-0.4,1.7,0.3,2.2c0.9-0.1-0.1-1.6,0.5-1.9c0.4-0.1,1.3-0.1,1.7,0
			c0.5,0.6-0.4,1.9,0.6,1.9c0.1-0.8,0-1.5,0-2.3C28.2,53.6,26.6,53.3,25.9,53.7 M33,54.1c0-0.2,0-0.3-0.2-0.3
			C32.7,54,32.7,54.2,33,54.1 M23.4,54.5c0-0.1,0.2-0.1,0.1-0.3c-0.1,0-0.1-0.1-0.1-0.1h-0.5C22.8,54.3,23.1,54.5,23.4,54.5
			 M25.5,54.7c-0.1,0.1-0.3,0.2-0.3,0.4c0.2,0,0.4,0,0.5-0.1c-0.1-0.3,0-0.9-0.4-0.8C25.3,54.5,25.4,54.5,25.5,54.7 M27.4,55.9
			c0.2,0.1,0.7,0.1,0.9,0c0.1-0.4-0.1-0.6,0.1-1C27.7,54.2,26.8,55.2,27.4,55.9 M32.7,55c-0.5,0.8-1.7,1.2-1.6,2.4
			c0.5,0.1,0.8-0.4,1.2-0.8c0.5-0.4,1.4-0.7,0.9-1.5C33.1,55.1,32.9,55,32.7,55 M22.8,55.3c-0.6,0.9,0.6,1.6,1.3,1.9
			c0.1-0.6-0.3-1.1-0.4-1.8C23.5,55.3,23.2,55.3,22.8,55.3 M31.3,55.9c0.2,0.2,0.4-0.2,0.1-0.2C31.4,55.8,31.3,55.8,31.3,55.9
			 M27.6,56.5c-0.1,0.2,0.5,0.2,0.5,0.1C27.8,56.4,27.7,56.4,27.6,56.5 M29,56.5c0-0.1-0.1-0.1-0.1,0C28.9,56.5,28.9,56.6,29,56.5
			 M30,56.5C29.8,56.3,29.8,56.8,30,56.5 M27.1,57.1c-0.9,0-1.7-0.1-2.4-0.1c-0.2,0.1-0.2,0.3-0.2,0.5c0.2,0.5,0.7,0.3,1.2,0.3
			c1-0.1,2.2,0,3.3-0.1c0.5,0,1.2,0,1.5-0.4C29.6,56.8,28.3,57.1,27.1,57.1 M31.5,58.5c-0.2,0-0.3,0.1-0.5,0.1
			c-0.2,0.3,0.1,0.5,0.2,0.7C31,59.5,31,59.7,30.9,60c0.1,0.2,0.4,0.2,0.4,0.5c-0.7,1.1,0.2,2.7-0.3,4c0.3,0.3,0.2,0.5,0.1,0.9
			c0.1,0.1,0.4-0.1,0.4,0.1c-0.2,0.2-0.4,0-0.5,0.1c0,0.3,0.2,0.5,0.1,0.8c0.2,0.1,0.7,0.4,0.7,0.1c-0.1-0.2-0.6-0.1-0.5-0.5
			c0.9-0.3,1-2.5,0.3-3c0.5-0.4,0.7-2-0.1-2.2c0.1-0.2,0.3-0.2,0.4-0.3c0-0.6,0-0.9,0-1.5c-0.1-0.1-0.3-0.1-0.4-0.2
			c0-0.4,0.5-0.2,0.4-0.7C31.6,57.8,31.3,58.1,31.5,58.5 M25.3,58.8c-0.2,0.2,0.3,0.2,0.3,0.5c-0.4,0.3-0.6,1-0.3,1.4
			c0,0.2-0.3,0.4-0.2,0.5c0.5,0.2,1.3-0.2,1.4,0.3c-0.3,0.3-1.1,0.1-1.4,0.3c0,0.3,0.1,0.6,0.1,1c0.1,0.2,0.7-0.1,0.6,0.3
			c-0.1,0.2-0.5,0.1-0.7,0.3c-0.2,0.3,0.3,0.3,0.3,0.6c-0.1,0.2-0.5,0.3-0.3,0.5c0.8,0.2,1.3-0.6,1.7,0c0,0.2-0.3,0-0.2,0.2h0.6
			c0.3-0.6,0.8-1,1.4-1.3c0.3,0.6,1.2,0.1,1.7,0.5c0.1,0.3-0.2,0.2-0.2,0.5c0.2,0.1,0.3,0.3,0.7,0.2c-0.2-1.8,0-3.5-0.1-5.1
			c0-0.2,0.1-0.8-0.3-0.9c-0.1,0.2-0.1,0.5-0.4,0.5c-0.3-0.6-1.3-0.6-2.2-0.5c-0.2,0.2,0.3,0.3,0.1,0.5c-0.6,0.1-0.6-0.3-0.7-0.5
			C26.5,58.8,25.8,58.6,25.3,58.8 M22.5,59.7c0.2,0.2,0.7,0.3,0.9,0.1c0.1-0.3,0.2-1-0.1-1.1C23.1,59.1,22.6,59.3,22.5,59.7
			 M20.5,60.9c-0.1,0.7-1.1,0.5-1.6,0.7c-0.2,1,0.9,0.7,1.6,0.7c0.7-0.6,1.7-1.3,2.8-0.8c0.1-0.3,0.1-0.6,0.1-0.9
			C22.6,59.7,21.6,60.8,20.5,60.9 M22.5,61.8c-0.3,0.2-0.6,0.5-1,0.6c-0.1,0.2,0,0.6-0.1,0.7c-0.3,0.2-0.6-0.1-1,0
			c0.3,0.6,0.8,1.2,1.4,1.2c0.3,0,0.5-0.3,0.8-0.4c0.6-0.1,0.9,0.2,1.5,0.1c0.1-0.3,0.2-0.9,0.1-1.2C23.4,62.6,23.2,61.9,22.5,61.8
			 M32.6,62.2c0,0.3,0.1,0.4,0.1,0.6c0.9,0.1,1.1,1,2,1.1c0.1-0.6,0.9-0.5,0.9-1.1c-0.4-0.3-1,0.2-1.4-0.1c-0.1-0.2-0.1-0.5-0.3-0.6
			C33.6,61.9,32.9,62,32.6,62.2 M43.2,66.6c-0.6-0.2-1.3-0.3-1.9-0.2c-0.5,0.1-0.7,0.4-1.1,0.3c-0.8-0.2-1.1-1.7-1.6-2.3
			c-0.7-0.4-1.3-0.5-2-0.3c-0.4,0.2-0.7,0.7-1.1,0.7c-1.2,0.2-1.5-1.1-2.6-1.4c-0.5,0.1-0.3,1.1-0.1,1.4c0.6,0.3,1.2,0.3,1.6,0.8
			c0.3,0.4,0.1,1.1,0.5,1.5c0.3-0.1,0.1-0.5,0.1-0.8c0.7-1,2.4-0.6,3.3,0c-0.1,0.6,0.1,1.4,0.7,1.6c0.3,0,0.6-0.3,1.1-0.3
			c0.4,0.1,0.7,0.8,1.2,0.9c0.4,0.1,1.2-0.1,1.6-0.2c0.7-0.2,1.4-0.4,1.9-0.8C44,67.6,43.5,67.2,43.2,66.6 M35.3,63.8
			c0.1,0.3,0.2,0.5,0.7,0.5c0.1-0.2,0.2-0.4,0.2-0.7C35.8,63.4,35.5,63.7,35.3,63.8 M24.9,65.3c-0.6-0.4-2-1.6-2.7-0.6
			c0.4,0.4,1,0.8,1.6,1.2c0.8,0.5,2.4,1.6,3.6,0.9c0.2-0.1,0.4-0.7,0.7-0.9c0.7-0.2,1.6,0.1,2-0.7c-0.5-0.4-1-1-1.8-0.8
			c-0.8,0.2-0.4,1.2-1.2,1.4C26.5,65.5,26,65.2,24.9,65.3 M32.1,65.8c0,0.7,0.4,1.2-0.1,1.4c-1.1,0.4-1.6-1.2-2.2-1.2
			c-0.5,0.1-0.2,0.6-0.7,0.7c-0.3,0-0.4-0.3-0.7-0.3c-0.4,0.4-1,0.5-1.3,1c1,0.4,2.1,1.2,3.4,0.9c0.5-0.1,0.8-0.6,1.2-0.6
			c0.5,0,1,0.5,1.5,0.4c0.6-0.1,0.7-0.5,1.1-0.9C34.8,65.9,33.1,65,32.1,65.8 M35.6,66.4c-0.1,0.3-0.2,0.5-0.2,0.9
			c0.6,0.7,2,1.5,2.9,0.5c-0.2-0.4-0.4-0.9-0.3-1.4C37.2,66.4,36.4,65.9,35.6,66.4 M39.1,68.6c-0.3,0-0.7-0.1-1.1-0.1
			c-0.5,0-0.9,0.3-1.2,0.2c-0.4-0.1-0.8-0.6-1.2-0.7c-0.4-0.1-1-0.1-1.2-0.1c-0.5,0.1-0.9,0.7-1.5,0.7c-0.5,0-1.2-0.7-1.8-0.2
			c0.1,0.4,0.7,0.3,1.1,0.4c2.2,0.4,7,0.8,8.7-0.2C40.5,67.8,39.7,68.5,39.1,68.6"/>
		<path class="st0" d="M26.1,28.4c0.3,0.1-0.1,0.4,0.1,0.7C25.8,29.1,26.1,28.6,26.1,28.4"/>
		<path class="st0" d="M30.7,28.9c0,0.4-1.1,0.3-0.9-0.1C30.1,28.7,30.6,28.8,30.7,28.9"/>
		<path class="st0" d="M36.3,29.4c0.6,0,0.7,0.7,1.2,0.9c0.6,0.2,1.3-0.1,1.9,0.3c-0.5,1.1-1.1,0.5-2.5,0.4
			c-0.9-0.1-1.9,0.1-1.9-0.7c0.4-0.4,0.9,0.3,1.5,0C36.5,29.8,36.1,29.7,36.3,29.4"/>
		<path class="st0" d="M56.4,30.6c0.1,0,0.1,0.1,0.2,0.1c0.1,0.8-0.4,1.6-0.3,2.5c0,0.4,0.3,0.8,0.3,1.3c0.1,0.6,0,1.2-0.1,1.8
			c0,1.2,0.2,2.5-0.3,3.5c-0.5-0.2,0-1.1,0.1-1.4c-0.1-0.2-0.1-0.5-0.2-0.7c0.7-1.6,0.1-3.6-0.3-4.9C56.4,32.4,56.1,31.2,56.4,30.6"
			/>
		<path class="st0" d="M24.9,31.5c0.1,0,0.1,0.1,0.2,0.1c0,0.3-0.1,0.4-0.2,0.5C24.7,32,24.8,31.5,24.9,31.5"/>
		<path class="st0" d="M42.8,32c0.1,0,0.1,0.1,0.1,0.1c0.1,1.8,0,4.3-0.1,6.1c0,0.3,0.3,0.7-0.1,0.9C42.7,36.7,42.5,34.1,42.8,32"/>
		<path class="st0" d="M44,32.1h0.2c-0.1,0.4,0,0.7-0.1,1C43.9,33,44,32.2,44,32.1"/>
		<path class="st0" d="M43.4,32.6c0.3,1.3,0.3,4,0.1,5.2c-0.4-0.2-0.2-0.8-0.2-1.2C43.3,35.2,43.4,33.9,43.4,32.6"/>
		<path class="st0" d="M44,33.2c0.1,0,0.1,0.1,0.2,0.1c-0.1,1.6,0.1,3.4-0.1,4.7c-0.3-0.6-0.3-1.6-0.3-2.2c0-0.8,0.1-1.5,0.1-2.4
			C43.9,33.3,44,33.3,44,33.2"/>
		<path class="st0" d="M57.5,33.5c0.5,0.3,0.5,1.5,0.2,2C57.6,34.9,57.8,34.1,57.5,33.5"/>
		<path class="st0" d="M30.3,34c0.2,0,0.1,0.1,0.3,0.1c0,0.2,0,0.5-0.3,0.5C30.2,34.4,30.2,34.2,30.3,34"/>
		<path class="st0" d="M58.6,34.6c0.1,0,0.1,0.1,0.2,0.1c0.2,1.6,0.2,3.4,0.1,5.1C58.2,38.3,59,36.1,58.6,34.6"/>
		<path class="st0" d="M48.6,36.2c0.4,0.9,0.1,2.6,0.1,3.6c-0.2,0.3-0.3,0.6-0.5,0.9c-0.2-1.3-0.3-3-0.1-4.4
			C48.2,36.2,48.4,36.2,48.6,36.2"/>
		<path class="st0" d="M57.6,36.3c0.4,1,0.2,2.6,0,3.3c-0.4-0.5-0.1-1.3-0.1-1.8C57.4,37.3,57.4,36.8,57.6,36.3"/>
		<path class="st0" d="M41.3,36.5c0.2,0,0.2,0.3,0.2,0.5C41.1,37.1,41.1,36.6,41.3,36.5"/>
		<path class="st0" d="M39.5,36.6c0.2,0,0.3,0,0.3,0.1c0,0.3-0.1,0.4-0.4,0.4C39.4,36.9,39.4,36.7,39.5,36.6"/>
		<rect x="40.8" y="36.7" class="st0" width="0.2" height="0.2"/>
		<path class="st0" d="M49.1,36.8c0.4,0.5,0.2,1.2,0.2,1.8c0,0.4,0.3,1.1-0.1,1.4C49,39.1,49,38,49.1,36.8"/>
		<path class="st0" d="M22.1,37.3c0.3,0,0,0.1,0.1,0.3C22,37.5,22.1,37.4,22.1,37.3"/>
		<path class="st0" d="M21,37.3c0.1,0,0.1,0.3-0.1,0.2L21,37.3C21,37.4,21,37.4,21,37.3"/>
		<path class="st0" d="M20.6,37.4c0.1,0,0.1,0.2,0.1,0.3C20.5,37.7,20.5,37.5,20.6,37.4"/>
		<path class="st0" d="M21,37.8c0.2,0.3,0,1.1,0.1,1.8C20.8,39,20.8,38.3,21,37.8"/>
		<path class="st0" d="M22.1,37.8c0.3,0.7,0.2,1.7,0.1,2.5C21.8,39.6,21.9,38.5,22.1,37.8"/>
		<path class="st0" d="M39.1,38.1c-0.1,0.1-0.3,0-0.4-0.1C38.7,37.7,39.2,37.7,39.1,38.1"/>
		<path class="st0" d="M39.3,37.8h0.3c0,0.2,0.1,0.1,0.1,0.3c-0.1,0-0.1,0.1-0.3,0.1C39.3,38.1,39.3,38,39.3,37.8"/>
		<path class="st0" d="M40.7,37.8c0.2,0,0.3,0,0.3,0.1C41,38.1,40.7,38.1,40.7,37.8"/>
		<path class="st0" d="M41.5,37.8v0.3C41.2,38.2,41.2,37.7,41.5,37.8"/>
		<path class="st0" d="M20.6,37.9c0.1,0.4,0.2,1.2-0.1,1.4C20.6,38.8,20.4,38.4,20.6,37.9"/>
		<path class="st0" d="M39.5,38.9c0.1,0,0.1,0.1,0.2,0.1c0,0.2-0.1,0.2-0.1,0.4c-0.2,0-0.3-0.1-0.3-0.2C39.3,39,39.5,39,39.5,38.9"
			/>
		<path class="st0" d="M41.2,39c0.2-0.1,0.3,0.2,0.2,0.3C41.3,39.3,41.2,39.1,41.2,39"/>
		<path class="st0" d="M34,39.2c0.1,0,0.1,0.2,0.1,0.3C33.9,39.4,33.9,39.3,34,39.2"/>
		<path class="st0" d="M21,39.7C21,39.7,21,39.8,21,39.7"/>
		<path class="st0" d="M39.7,40.2c0.1,0.2,0,0.2,0,0.5h-0.3C39.3,40.5,39.4,40.1,39.7,40.2"/>
		<path class="st0" d="M41.2,40.2c0.1,0,0.2,0,0.3,0.1c0,0.2-0.1,0.1-0.1,0.3C41.2,40.5,41.2,40.4,41.2,40.2"/>
		<path class="st0" d="M44.8,40.5H45v0.3C44.7,40.9,44.7,40.7,44.8,40.5"/>
		<path class="st0" d="M45.5,40.5c0.1,0.1,0.2,0.1,0.2,0.3c-0.1,0.1-0.2,0.1-0.3,0.1C45.4,40.7,45.5,40.6,45.5,40.5"/>
		<path class="st0" d="M13.3,41.6c0.1,0,0.2,0.1,0.2,0.2h-0.2V41.6z"/>
		<path class="st0" d="M44.8,41.7C45.1,41.8,44.8,42.2,44.8,41.7"/>
		<path class="st0" d="M25.2,42.1C25.2,42.1,25.2,42.1,25.2,42.1"/>
		<path class="st0" d="M13.8,42.4c0.1,0,0.1,0.1,0.1,0.2C13.7,42.6,13.7,42.5,13.8,42.4"/>
		<path class="st0" d="M15,42.6c0.2,0,0.3,0.1,0.3,0.3C15.1,42.9,15,42.8,15,42.6"/>
		<path class="st0" d="M21.7,43.2C21.7,43.1,21.8,43.2,21.7,43.2"/>
		<path class="st0" d="M41.6,43.4C41.7,43.1,41.7,43.6,41.6,43.4"/>
		<path class="st0" d="M33.8,44.9c0,0.1-0.3,0.2-0.3,0.1C33.5,44.8,33.7,44.9,33.8,44.9"/>
		<path class="st0" d="M37.4,45.3C37.5,45,37.5,45.5,37.4,45.3"/>
		<path class="st0" d="M35.4,45.5C35.4,45.2,35.7,45.3,35.4,45.5L35.4,45.5z"/>
		<path class="st0" d="M34,45.5c0-0.1,0.1-0.1,0.1-0.1C34.1,45.5,34.1,45.5,34,45.5"/>
		<path class="st0" d="M29.3,47.9c-0.1,0.4-0.9,0.3-1.3,0.2v-0.2C28.6,47.8,28.9,47.9,29.3,47.9"/>
		<path class="st0" d="M27.1,48.9c-0.2,0.4-1,0.2-1-0.3C26.4,48.6,26.9,48.8,27.1,48.9"/>
		<path class="st0" d="M30.2,49c-0.2,0.1-1,0.2-0.9-0.3C29.6,48.6,30.2,48.7,30.2,49"/>
		<path class="st0" d="M27.7,48.9c0.2,0,0.3,0,0.4,0.1C28.1,49.1,27.6,49.2,27.7,48.9"/>
		<path class="st0" d="M28.5,49.4c0.4,0.1,1,0,1.4,0.2c-0.1,0.4-1.1,0.3-1.4,0.1C28.4,49.5,28.5,49.6,28.5,49.4"/>
		<path class="st0" d="M26,50.2c0.3,0,0.7,0.1,0.9,0.2C26.8,50.8,25.8,50.7,26,50.2"/>
		<path class="st0" d="M28,50.6c-0.2,0.1-0.3,0.1-0.5,0C27.6,50.2,28,50.2,28,50.6"/>
		<path class="st0" d="M29.1,50.6c-0.1,0.1-0.4,0.1-0.6,0.1C28.4,50.1,29.1,50.2,29.1,50.6"/>
		<rect x="30.1" y="50.4" class="st0" width="0.1" height="0.1"/>
		<path class="st0" d="M29.2,50.8c0.4,0,0.8,0,0.9,0.2C30.1,51.4,29.1,51.4,29.2,50.8"/>
		<path class="st0" d="M27.9,51.2c-0.4,0.1-1.2,0.1-1.6,0V51C26.6,51,27.7,50.8,27.9,51.2"/>
		<path class="st0" d="M28.3,51.6c0.3,0,0.6,0,0.6,0.3C28.7,52,28.3,51.9,28.3,51.6"/>
		<path class="st0" d="M27.6,51.8c-0.3,0.3-1.4,0.2-2,0.1v-0.2C26.2,51.6,27,51.5,27.6,51.8"/>
		<path class="st0" d="M30,51.8c-0.1,0.2-0.4,0.2-0.6,0.1C29.4,51.6,29.9,51.6,30,51.8"/>
		<path class="st0" d="M29.7,52.3c0.3,0,0.5,0.1,0.5,0.4c-0.2,0.2-0.4,0.2-0.6,0C29.6,52.5,29.7,52.4,29.7,52.3"/>
		<path class="st0" d="M26.1,52.3c0.3,0.1,0.7,0.1,1.1,0.2c-0.2,0.4-0.8,0.2-1.1,0.1V52.3z"/>
		<rect x="30.1" y="54.6" class="st0" width="0.1" height="0.1"/>
		<path class="st0" d="M29.9,55.4c0.2,0,0.3,0,0.3,0.2C30,55.7,29.8,55.6,29.9,55.4"/>
		<path class="st0" d="M26.6,59.1c0.2,0.2-0.1,0.1-0.1,0.3c0.1,0.3,0.7,0.2,1,0.3c-0.5,0.4-1.9,0.4-1.6-0.7
			C26.1,59,26.5,59,26.6,59.1"/>
		<path class="st0" d="M28.9,59.1v0.4c0.2,0.2,0.7,0.1,0.9,0.2c-0.5,0.5-1.7,0.2-1.5-0.6C28.5,59,28.8,59.1,28.9,59.1"/>
		<path class="st0" d="M27.7,60.2c0.5,0.4,1.5,0,1.9,0.5c-0.5,0.2-1.5,0.2-1.9-0.1V60.2z"/>
		<path class="st0" d="M26.7,60.6c0.1,0.5-0.3,0.6-0.8,0.5c-0.1-0.2-0.1-0.3-0.1-0.5C26,60.4,26.4,60.5,26.7,60.6"/>
		<path class="st0" d="M27,61.3c0.2,0,0.5,0,0.5,0.1c0,0.3-0.4,0.2-0.5,0.1V61.3z"/>
		<path class="st0" d="M28.6,61.3c0.3,0,0.6,0,0.7,0.2C29.2,61.8,28.5,61.7,28.6,61.3"/>
		<rect x="30.1" y="61.4" class="st0" width="0.1" height="0.1"/>
		<path class="st0" d="M31.6,61.7c0.2,0,0.3,0,0.3,0.2c-0.2,0-0.1,0.1-0.3,0.1C31.5,61.8,31.6,61.8,31.6,61.7"/>
		<path class="st0" d="M28,61.8c0,0.1-0.1,0.1-0.2,0.1C27.7,61.8,27.9,61.8,28,61.8"/>
		<path class="st0" d="M26.5,62.3c-0.1,0.5-0.6,0.4-1.1,0.5C25.3,61.8,26,62.1,26.5,62.3"/>
		<path class="st0" d="M28.1,62.3c0,0.4-0.8,0.4-1.1,0.3C26.7,62.1,27.8,62.2,28.1,62.3"/>
		<path class="st0" d="M30.1,62.5c-0.3,0.2-1.3,0.3-1.4-0.2C29.1,62.2,30.1,62,30.1,62.5"/>
		<path class="st0" d="M26.7,62.9c0.4,0.1,1,0.1,1.2,0.4c-0.4,0.1-0.9,0.4-1.3,0.3C26.7,63.3,26.6,63,26.7,62.9"/>
		<path class="st0" d="M30.2,63.2c-0.1,0.4-1,0.2-1.4,0.1c0-0.2-0.1-0.1-0.1-0.3C29.1,62.8,29.8,63.1,30.2,63.2"/>
		<path class="st0" d="M25.7,63.8c0.5,0.1,1.2,0,1.4,0.4C26.7,64.3,25.7,64.4,25.7,63.8"/>
		<polygon class="st0" points="10.2,26.1 10.7,27.8 12.5,27.8 11.1,28.8 11.6,30.5 10.2,29.4 8.8,30.5 9.3,28.8 7.9,27.8 9.6,27.8 
					"/>
		<polygon class="st0" points="63,26.1 63.5,27.8 65.3,27.8 63.9,28.8 64.4,30.5 63,29.4 61.5,30.5 62.1,28.8 60.7,27.8 62.4,27.8 
					"/>
		<path class="st0" d="M12.2,25.5c-0.3-0.3-0.5-0.7-0.6-1.1c-0.1-0.5-0.1-0.9,0.1-1.4c0.2-0.5,0.4-0.9,0.7-1.2c0.6-0.7,1.3-1,2-1.1
			c0.7-0.1,1.3,0.2,1.8,0.6c0.5,0.4,0.7,1,0.7,1.7c0,0.7-0.3,1.4-0.9,2c-0.4,0.4-0.9,0.8-1.3,0.9c-0.5,0.2-0.9,0.2-1.4,0.1
			C12.9,25.9,12.5,25.7,12.2,25.5 M13.3,24.3c0.5,0.5,1,0.8,1.4,0.8c0.4,0.1,0.7-0.1,1-0.4c0.3-0.3,0.4-0.7,0.3-1
			c-0.1-0.4-0.4-0.8-0.9-1.3c-0.5-0.5-0.9-0.7-1.3-0.8c-0.4-0.1-0.7,0.1-1,0.4c-0.3,0.3-0.4,0.7-0.3,1
			C12.5,23.4,12.8,23.8,13.3,24.3"/>
		<path class="st0" d="M18.4,19.4l1,1.3c0.1,0.1,0.2,0.2,0.3,0.2c0.1,0,0.2-0.1,0.4-0.2l0.2-0.1l0.2,0.3l-2.4,1.9l-0.2-0.3l0.1-0.1
			c0.2-0.2,0.3-0.3,0.3-0.4c0-0.1,0-0.2-0.1-0.3l-1-1.3l-0.6,0.5l-0.2-0.3L17,20c-0.2-0.3-0.4-0.5-0.5-0.7c-0.1-0.2-0.1-0.4-0.1-0.6
			c0-0.2,0.1-0.5,0.3-0.8c0.2-0.3,0.4-0.5,0.8-0.8c0.4-0.3,0.7-0.5,1-0.5c0.3-0.1,0.5,0,0.6,0.1c0.1,0.1,0.1,0.2,0.1,0.4
			c0,0.2-0.1,0.3-0.3,0.4c-0.3,0.2-0.6,0.2-0.9,0c-0.1-0.1-0.3-0.1-0.4,0c-0.1,0.1-0.2,0.2-0.1,0.3c0,0.1,0.1,0.3,0.3,0.5l0.5,0.7
			l0.7-0.5l0.2,0.3L18.4,19.4z"/>
		<path class="st0" d="M21.5,17.4l0.8,1.4c0.1,0.1,0.2,0.2,0.3,0.3c0.1,0,0.3,0,0.5-0.2l0.2-0.1l0.2,0.3l-2.6,1.6l-0.2-0.3l0.1-0.1
			c0.2-0.1,0.3-0.2,0.4-0.3c0-0.1,0-0.2-0.1-0.4l-0.8-1.4l-0.6,0.4l-0.2-0.3l0.6-0.4c-0.2-0.3-0.3-0.6-0.4-0.7
			c-0.1-0.2-0.1-0.4,0-0.6c0.1-0.2,0.2-0.5,0.4-0.7c0.2-0.2,0.5-0.5,0.8-0.7c0.4-0.2,0.8-0.4,1-0.4c0.3,0,0.5,0.1,0.6,0.2
			c0.1,0.1,0.1,0.3,0,0.4c-0.1,0.2-0.2,0.3-0.3,0.4c-0.3,0.2-0.6,0.2-0.9-0.1c-0.1-0.1-0.3-0.1-0.4,0c-0.1,0.1-0.2,0.2-0.2,0.3
			c0,0.1,0.1,0.3,0.2,0.5l0.4,0.7l0.7-0.4l0.2,0.3L21.5,17.4z"/>
		<path class="st0" d="M22.8,14.8c-0.1-0.2-0.1-0.3,0-0.5c0.1-0.2,0.3-0.3,0.5-0.4c0.2-0.1,0.4-0.1,0.6-0.1c0.2,0,0.3,0.1,0.4,0.3
			c0.1,0.2,0.1,0.3,0,0.5c-0.1,0.2-0.3,0.3-0.5,0.4c-0.2,0.1-0.4,0.1-0.6,0.1C23,15.1,22.9,15,22.8,14.8 M24.7,15.3l0.9,1.9
			c0.1,0.2,0.2,0.3,0.2,0.3c0.1,0,0.3,0,0.5-0.1l0.1,0.3l-2.6,1.1l-0.1-0.3l0.1,0c0.2-0.1,0.4-0.2,0.4-0.3c0-0.1,0-0.2,0-0.4
			l-0.4-0.9c-0.1-0.2-0.1-0.2-0.2-0.3c-0.1,0-0.3,0-0.5,0.1l-0.1,0l-0.1-0.3L24.7,15.3z"/>
		<path class="st0" d="M29.7,15.8l0.5,0c0,0.3-0.2,0.6-0.5,0.8c-0.3,0.2-0.6,0.4-1.1,0.5c-0.6,0.2-1.1,0.2-1.6,0.1
			c-0.5-0.1-0.8-0.4-0.9-0.8c-0.1-0.5,0-0.9,0.3-1.3c0.4-0.4,0.9-0.7,1.6-0.9c0.4-0.1,0.8-0.2,1.1-0.1c0.3,0,0.5,0.2,0.5,0.4
			c0,0.1,0,0.2-0.1,0.3c-0.1,0.1-0.2,0.2-0.4,0.2c-0.3,0.1-0.6,0-0.8-0.3c-0.1-0.1-0.1-0.1-0.2-0.2c-0.1,0-0.2,0-0.3,0
			c-0.3,0.1-0.4,0.2-0.5,0.4c-0.1,0.2-0.1,0.4,0,0.8c0.1,0.4,0.3,0.7,0.5,0.8c0.2,0.1,0.5,0.2,0.8,0.1
			C29.3,16.5,29.6,16.2,29.7,15.8"/>
		<path class="st0" d="M32.2,13.3l0.3,2.1c0,0.2,0.1,0.3,0.2,0.3c0.1,0.1,0.3,0.1,0.5,0l0.1,0.4l-2.8,0.5l-0.1-0.4l0.1,0
			c0.3,0,0.4-0.1,0.5-0.2c0.1-0.1,0.1-0.2,0-0.4l-0.2-1c0-0.2-0.1-0.3-0.2-0.3c-0.1-0.1-0.2-0.1-0.5,0l-0.1,0l-0.1-0.4L32.2,13.3z
			 M30.5,12.3c0-0.2,0-0.3,0.2-0.5c0.1-0.1,0.3-0.2,0.5-0.3c0.2,0,0.4,0,0.6,0.1c0.2,0.1,0.3,0.2,0.3,0.4c0,0.2,0,0.3-0.2,0.5
			c-0.1,0.1-0.3,0.2-0.5,0.3c-0.2,0-0.4,0-0.6-0.1C30.6,12.6,30.5,12.5,30.5,12.3"/>
		<path class="st0" d="M36,15.6c-0.2,0.1-0.5,0.2-0.7,0.3C35,16,34.8,16,34.5,16c-0.4,0-0.6,0-0.8-0.2c-0.2-0.1-0.3-0.3-0.3-0.4
			c0-0.3,0.2-0.5,0.5-0.7c0.3-0.2,1-0.4,1.9-0.7l0-0.3c0-0.2-0.1-0.3-0.2-0.3c-0.1,0-0.3-0.1-0.4-0.1c-0.4,0-0.6,0.1-0.6,0.3
			c0,0.1-0.1,0.3-0.2,0.3c-0.1,0.1-0.2,0.1-0.4,0.1c-0.2,0-0.3,0-0.4-0.1c-0.1-0.1-0.2-0.1-0.2-0.2c0-0.2,0.2-0.4,0.5-0.6
			c0.4-0.2,0.9-0.2,1.5-0.3c0.4,0,0.6,0,0.9,0c0.2,0,0.4,0.1,0.6,0.2c0.1,0.1,0.2,0.2,0.3,0.3c0.1,0.1,0.1,0.2,0.1,0.4l0,1.3
			c0,0.2,0.1,0.3,0.2,0.3c0.1,0,0.2-0.1,0.3-0.2l0.4,0c0,0.2-0.1,0.4-0.3,0.5c-0.2,0.1-0.5,0.2-0.8,0.2C36.5,16,36.2,15.9,36,15.6
			 M35.9,15.3l0-0.8c-0.4,0.1-0.7,0.3-0.8,0.4c-0.1,0.1-0.2,0.2-0.2,0.3c0,0.1,0,0.2,0.1,0.2c0.1,0.1,0.2,0.1,0.3,0.1
			c0.1,0,0.2,0,0.3-0.1C35.7,15.4,35.8,15.3,35.9,15.3"/>
		<path class="st0" d="M40.8,11.4l-0.4,3.9c0,0.2,0,0.3,0.1,0.4c0.1,0.1,0.2,0.1,0.5,0.2l0,0.4l-2.8-0.3l0-0.4c0.2,0,0.4,0,0.5,0
			c0.1,0,0.2-0.2,0.2-0.4l0.3-2.8c0-0.2,0-0.3-0.1-0.4c-0.1-0.1-0.3-0.1-0.5-0.2l0-0.4L40.8,11.4z"/>
		<path class="st0" d="M45.4,17.2l0.6-1.5l0.5,0.2c0,0.5,0,0.9,0.2,1.2c0.2,0.3,0.5,0.5,0.8,0.7c0.2,0.1,0.5,0.1,0.6,0.1
			c0.2,0,0.3-0.1,0.4-0.3c0-0.1,0-0.2,0-0.4c0-0.1-0.2-0.3-0.5-0.6c-0.5-0.5-0.9-0.9-1.1-1.1c-0.2-0.2-0.3-0.4-0.4-0.7
			c-0.1-0.2,0-0.5,0.1-0.7c0.2-0.4,0.5-0.6,0.9-0.7c0.5-0.1,0.9,0,1.4,0.2c0.5,0.2,0.9,0.5,1.1,0.9c0.1,0,0.2-0.1,0.3-0.2l0.5,0.2
			l-0.5,1.3l-0.5-0.2c0-0.3,0-0.6-0.2-0.9c-0.2-0.3-0.4-0.5-0.7-0.6C48.7,14,48.5,14,48.3,14c-0.2,0-0.3,0.1-0.3,0.3
			c0,0.1,0,0.2,0,0.4c0,0.1,0.1,0.3,0.2,0.4c0.1,0.1,0.4,0.4,0.8,0.7c0.4,0.3,0.6,0.6,0.8,0.8c0.2,0.2,0.2,0.4,0.3,0.6
			c0,0.2,0,0.4-0.1,0.6c-0.2,0.4-0.5,0.6-1,0.7c-0.5,0.1-1,0-1.5-0.2c-0.3-0.1-0.6-0.3-0.8-0.5c-0.2-0.2-0.4-0.4-0.5-0.7
			c-0.1,0.1-0.2,0.2-0.3,0.3L45.4,17.2z"/>
		<path class="st0" d="M52,18.9c-0.2,0.3-0.3,0.6-0.2,0.8c0,0.3,0.2,0.5,0.5,0.7c0.3,0.2,0.7,0.3,1.1,0.2l0.3,0.4
			c-0.2,0.1-0.5,0.1-0.9,0c-0.3-0.1-0.7-0.2-1-0.4c-0.5-0.3-0.9-0.7-1.1-1.2c-0.2-0.5-0.2-0.9,0.1-1.3c0.3-0.4,0.6-0.6,1.1-0.6
			c0.5,0,1,0.2,1.5,0.5c0.5,0.3,0.8,0.7,1,1.1c0.2,0.4,0.1,0.8-0.1,1.3L52,18.9z M52.2,18.6l1,0.6c0.3-0.4,0.2-0.8-0.1-1
			c-0.2-0.1-0.3-0.1-0.5-0.1C52.5,18.3,52.4,18.4,52.2,18.6"/>
		<path class="st0" d="M55.6,23.1c-0.2-0.1-0.5-0.1-0.7-0.3c-0.2-0.1-0.4-0.3-0.6-0.4c-0.3-0.2-0.4-0.5-0.5-0.7
			c-0.1-0.2,0-0.4,0.1-0.5c0.2-0.2,0.4-0.2,0.8-0.1c0.4,0.1,1,0.4,1.9,0.8l0.2-0.2c0.1-0.1,0.2-0.3,0.1-0.4
			c-0.1-0.1-0.1-0.2-0.3-0.3c-0.3-0.3-0.5-0.3-0.7-0.2c-0.1,0.1-0.2,0.1-0.3,0.1c-0.1,0-0.2-0.1-0.4-0.2c-0.1-0.1-0.2-0.2-0.2-0.4
			c0-0.1,0-0.2,0-0.3c0.1-0.2,0.4-0.2,0.8,0c0.4,0.1,0.8,0.4,1.3,0.8c0.3,0.2,0.5,0.4,0.6,0.6c0.2,0.2,0.3,0.4,0.3,0.5
			c0.1,0.2,0.1,0.3,0,0.4c0,0.1-0.1,0.2-0.2,0.3l-0.9,1c-0.1,0.1-0.1,0.3,0,0.4c0.1,0.1,0.2,0.1,0.3,0l0.3,0.3
			c-0.2,0.2-0.4,0.2-0.6,0.2c-0.2-0.1-0.5-0.2-0.7-0.4C55.7,23.7,55.5,23.4,55.6,23.1 M55.7,22.7l0.5-0.6c-0.4-0.2-0.7-0.3-0.9-0.3
			c-0.2,0-0.3,0-0.4,0.1C55,22,55,22.1,55,22.2c0,0.1,0.1,0.2,0.2,0.3c0.1,0.1,0.2,0.1,0.3,0.2C55.5,22.7,55.6,22.7,55.7,22.7"/>
		<path class="st0" d="M62,23.4l-3,2.5c-0.1,0.1-0.2,0.2-0.2,0.3c0,0.1,0.1,0.3,0.3,0.5l-0.3,0.2l-1.8-2.1l0.3-0.2
			c0.2,0.2,0.3,0.3,0.4,0.4c0.1,0,0.2,0,0.4-0.1l2.2-1.8c0.1-0.1,0.2-0.2,0.2-0.3c0-0.1-0.1-0.3-0.3-0.5l0.3-0.2L62,23.4z"/>
		<path class="st0" d="M6.9,50.9c0,0.6,0,1.1-0.2,1.4c-0.1,0.3-0.4,0.5-0.7,0.6c-0.4,0.1-0.7-0.1-1-0.4c-0.3-0.3-0.5-1-0.7-1.8
			l-0.6-3.2l0.4-0.1c0.1,0.3,0.1,0.5,0.2,0.6c0.1,0.1,0.3,0.1,0.5,0.1l2.7-0.5c0.2,0,0.4-0.1,0.4-0.2C8,47.2,8,47,7.9,46.7l0.4-0.1
			l0.5,2.3l0.1,0.3c0.2,1.1,0.3,1.8,0.1,2.2c-0.1,0.4-0.4,0.7-0.7,0.7c-0.3,0.1-0.5,0-0.7-0.2C7.4,51.8,7.1,51.4,6.9,50.9 M6.4,49.5
			l-1.3,0.3c-0.1,0-0.2,0.1-0.3,0.1c-0.1,0-0.1,0.1-0.1,0.2c0,0.1,0,0.3,0,0.4c0.1,0.3,0.2,0.5,0.4,0.6c0.2,0.1,0.4,0.1,0.7,0.1
			c0.2,0,0.4-0.1,0.5-0.3c0.1-0.1,0.2-0.3,0.2-0.4c0-0.2,0-0.4-0.1-0.7L6.4,49.5z M6.8,49.4l0.1,0.3C7,50,7.1,50.3,7.2,50.4
			c0.1,0.1,0.4,0.2,0.7,0.1c0.2,0,0.4-0.1,0.5-0.3c0.1-0.1,0.2-0.3,0.2-0.5c0-0.2,0-0.4-0.1-0.7L6.8,49.4z"/>
		<path class="st0" d="M8.6,54.8l-2,0.7c-0.2,0.1-0.3,0.1-0.3,0.2c0,0.1,0,0.3,0.1,0.5l-0.3,0.1l-1-2.6l0.3-0.1l0,0.1
			c0.1,0.2,0.2,0.4,0.3,0.4c0.1,0,0.2,0,0.4,0l1-0.3c0.2-0.1,0.3-0.1,0.3-0.2c0-0.1,0-0.3-0.1-0.5l0-0.1l0.3-0.1L8.6,54.8z M9.2,53
			c0.2-0.1,0.3,0,0.5,0.1c0.2,0.1,0.3,0.3,0.4,0.5c0.1,0.2,0.1,0.4,0,0.6c-0.1,0.2-0.2,0.3-0.3,0.4c-0.2,0.1-0.3,0-0.5-0.1
			C9.1,54.3,9,54.2,8.9,54c-0.1-0.2-0.1-0.4,0-0.6C9,53.2,9.1,53,9.2,53"/>
		<path class="st0" d="M9,57.4c0.3,0.1,0.5,0.2,0.7,0.3c0.2,0.2,0.4,0.4,0.5,0.6c0.1,0.2,0.1,0.4,0.1,0.6c-0.1,0.2-0.1,0.3-0.3,0.4
			c-0.1,0.1-0.2,0.1-0.4,0c-0.1-0.1-0.2-0.2-0.3-0.3c0-0.1-0.1-0.2-0.1-0.3c0-0.1,0-0.2,0.1-0.3c0-0.1,0-0.3,0-0.4
			c-0.1-0.2-0.2-0.3-0.4-0.3c-0.2,0-0.5,0.1-0.8,0.2l-0.3,0.1c-0.2,0.1-0.2,0.2-0.3,0.3c0,0.1,0,0.3,0.1,0.5l0,0.1l-0.3,0.2
			l-1.2-2.5l0.3-0.2c0.1,0.2,0.2,0.4,0.3,0.4c0.1,0,0.2,0,0.4-0.1L8,56.3c0.2-0.1,0.2-0.2,0.3-0.3c0-0.1,0-0.3-0.1-0.5l0.3-0.2
			L9.6,57C9.5,57.2,9.3,57.3,9,57.4"/>
		<path class="st0" d="M10.8,61.3l-0.9,0.7c-0.1,0.1-0.2,0.2-0.2,0.3c0,0.1,0,0.2,0.2,0.4l-0.3,0.2L8.2,61l0.3-0.2l0.1,0.1
			c0.1,0.2,0.2,0.3,0.3,0.3c0.1,0,0.2,0,0.3-0.1l0.8-0.6c0.1-0.1,0.2-0.2,0.2-0.3c0-0.1,0-0.2-0.2-0.4l0.3-0.2l1.2,1.2
			c-0.1,0.1-0.2,0.2-0.3,0.3c0.2,0,0.5,0.1,0.7,0.2c0.2,0.1,0.4,0.3,0.5,0.5c0.2,0.2,0.3,0.4,0.3,0.7c0,0.2,0,0.4-0.1,0.6
			c0.3,0,0.5,0.1,0.7,0.2c0.2,0.1,0.4,0.3,0.6,0.5c0.1,0.2,0.2,0.4,0.3,0.6c0.1,0.2,0.1,0.4,0,0.5c0,0.1-0.1,0.3-0.2,0.4
			c-0.1,0.1-0.2,0.2-0.4,0.3l-0.7,0.5c-0.1,0.1-0.2,0.2-0.2,0.3c0,0.1,0.1,0.2,0.2,0.4l-0.3,0.2L11.2,65l0.3-0.2
			c0.1,0.2,0.2,0.2,0.3,0.2c0.1,0,0.2,0,0.3-0.1l0.8-0.6c0.2-0.1,0.2-0.2,0.3-0.4c0-0.1,0-0.2-0.1-0.4c-0.1-0.1-0.2-0.2-0.3-0.3
			c-0.1-0.1-0.3-0.1-0.5-0.1l-0.9,0.7c-0.1,0.1-0.2,0.2-0.2,0.3c0,0.1,0,0.2,0.2,0.4l-0.3,0.2l-1.3-1.7l0.3-0.2
			c0.1,0.1,0.2,0.2,0.3,0.2c0.1,0,0.2,0,0.3-0.1l0.8-0.6c0.2-0.1,0.2-0.2,0.3-0.4c0-0.1,0-0.2-0.1-0.4c-0.1-0.1-0.2-0.2-0.3-0.3
			C11.2,61.3,11,61.3,10.8,61.3"/>
		<path class="st0" d="M16.5,66.2L15,67.7c-0.1,0.1-0.2,0.2-0.2,0.3c0,0.1,0.1,0.2,0.3,0.4l-0.3,0.3l-2-1.9l0.3-0.3l0.1,0.1
			c0.2,0.2,0.3,0.3,0.4,0.3c0.1,0,0.2-0.1,0.3-0.2l0.7-0.7c0.1-0.1,0.2-0.2,0.2-0.3c0-0.1-0.1-0.2-0.3-0.4l-0.1-0.1l0.3-0.3
			L16.5,66.2z M16.2,64.3c0.1-0.1,0.3-0.2,0.5-0.1c0.2,0,0.4,0.1,0.5,0.3c0.2,0.2,0.3,0.3,0.3,0.5c0,0.2,0,0.4-0.1,0.5
			c-0.1,0.1-0.3,0.2-0.5,0.2c-0.2,0-0.4-0.1-0.5-0.3c-0.2-0.2-0.3-0.3-0.3-0.5C16,64.5,16,64.4,16.2,64.3"/>
		<path class="st0" d="M18.3,69l-0.6,0.9c-0.1,0.1-0.1,0.2-0.1,0.3c0,0.1,0.1,0.2,0.2,0.3l-0.2,0.3l-2.1-1.5l0.2-0.3
			c0.2,0.2,0.4,0.2,0.5,0.2c0.1,0,0.2-0.1,0.3-0.2l0.6-0.8c0.1-0.1,0.1-0.3,0.1-0.4c0-0.1-0.1-0.2-0.4-0.4l0.2-0.3l1.8,1
			c0,0.1-0.1,0.2-0.2,0.4c0.3,0,0.5,0,0.7,0.1c0.2,0.1,0.4,0.2,0.6,0.3c0.3,0.2,0.6,0.5,0.7,0.8c0.1,0.3,0.1,0.6-0.1,0.8l-0.6,0.9
			c-0.1,0.1-0.1,0.3-0.1,0.4c0,0.1,0.1,0.2,0.3,0.4l-0.2,0.3L17.8,71l0.2-0.3c0.1,0.1,0.2,0.1,0.3,0.1c0.1,0,0.2-0.1,0.3-0.2
			l0.6-0.8c0.1-0.2,0.2-0.3,0.1-0.4c0-0.1-0.1-0.2-0.2-0.3C19.1,69.1,19,69,18.8,69C18.7,69,18.5,69,18.3,69"/>
		<path class="st0" d="M21.7,72.3c-0.3-0.2-0.5-0.4-0.5-0.7c-0.1-0.2-0.1-0.5,0-0.6c0.1-0.3,0.4-0.4,0.8-0.4c0.4,0,0.9,0.1,1.4,0.4
			c0.3,0.1,0.5,0.3,0.7,0.4c0.2,0.2,0.3,0.3,0.5,0.5c0.4,0,0.7,0,0.9,0.1c0.3,0.1,0.4,0.3,0.3,0.5c-0.1,0.2-0.2,0.2-0.4,0.1
			c-0.1,0-0.1-0.1-0.2-0.3c0-0.1-0.1-0.1-0.1-0.1c-0.1,0-0.1,0-0.2,0c0,0.2,0,0.3-0.1,0.5c-0.1,0.2-0.4,0.4-0.7,0.4
			c-0.4,0-0.9-0.1-1.6-0.4c-0.3-0.1-0.5-0.2-0.6-0.2c-0.1,0-0.2,0-0.2,0.1c-0.1,0.1,0.1,0.3,0.5,0.4c0.1,0,0.3,0.1,0.5,0.2
			c0.1,0,0.2,0.1,0.3,0.1c0.6,0.3,1,0.6,1.2,0.8c0.2,0.3,0.2,0.6,0.1,0.9c-0.2,0.3-0.5,0.5-0.9,0.5c-0.5,0-1.1-0.2-1.8-0.5
			c-0.7-0.3-1.2-0.7-1.4-0.9c-0.2-0.3-0.3-0.5-0.2-0.7c0.1-0.1,0.2-0.2,0.3-0.3c0.1-0.1,0.4-0.2,0.7-0.3c0.1,0,0.3,0.4,0.4,0.5
			c0,0-0.5,0.3-0.5,0.3c0,0,0,0.1-0.1,0.1c-0.1,0.1,0,0.3,0.1,0.5c0.2,0.2,0.4,0.3,0.8,0.5c0.5,0.2,0.9,0.4,1.2,0.4
			c0.3,0,0.5-0.1,0.5-0.2c0.1-0.1,0-0.3-0.1-0.4C23,74.5,22.6,74.3,22,74c-0.6-0.3-1.1-0.6-1.3-0.8c-0.2-0.2-0.3-0.5-0.2-0.7
			c0.1-0.2,0.2-0.3,0.4-0.3C21.2,72.1,21.4,72.2,21.7,72.3 M22.5,71.6c-0.1,0.2-0.1,0.4-0.1,0.5c0,0.1,0.1,0.3,0.3,0.3
			c0.2,0.1,0.3,0.1,0.4,0c0.1-0.1,0.2-0.2,0.3-0.4c0.1-0.2,0.1-0.3,0-0.5c-0.1-0.1-0.2-0.2-0.3-0.3c-0.2-0.1-0.3-0.1-0.4,0
			C22.7,71.3,22.6,71.4,22.5,71.6"/>
		<path class="st0" d="M27.3,73.6l-0.3,1c0,0.2,0,0.3,0,0.4c0,0.1,0.2,0.2,0.3,0.2l-0.1,0.3l-2.5-0.7l0.1-0.4c0.3,0.1,0.4,0.1,0.5,0
			c0.1,0,0.2-0.1,0.2-0.3l0.8-2.7c0-0.2,0-0.3,0-0.4c0-0.1-0.2-0.2-0.4-0.2l0.1-0.4l2.1,0.3l-0.7,2.2c0.2-0.1,0.5-0.2,0.7-0.2
			c0.2,0,0.5,0,0.7,0.1c0.3,0.1,0.6,0.2,0.7,0.4c0.2,0.2,0.3,0.3,0.3,0.5c0,0.2,0,0.4-0.1,0.6l-0.3,0.9c-0.1,0.2,0,0.3,0,0.4
			c0.1,0.1,0.2,0.2,0.4,0.2l-0.1,0.4l-2.5-0.7l0.1-0.3c0.1,0,0.2,0,0.3,0c0.1,0,0.2-0.1,0.2-0.3l0.3-1c0.1-0.3,0-0.5-0.3-0.6
			c-0.1,0-0.3,0-0.4,0C27.6,73.4,27.4,73.5,27.3,73.6"/>
		<path class="st0" d="M33,76.4c-0.2,0.1-0.5,0.2-0.7,0.2c-0.2,0-0.5,0-0.8,0c-0.3,0-0.6-0.1-0.8-0.3c-0.2-0.1-0.2-0.3-0.2-0.5
			c0-0.2,0.2-0.4,0.6-0.6s1-0.3,2-0.4l0-0.3c0-0.2,0-0.3-0.1-0.4c-0.1-0.1-0.2-0.1-0.4-0.1c-0.4,0-0.6,0-0.7,0.2
			c0,0.1-0.1,0.2-0.2,0.3c-0.1,0.1-0.2,0.1-0.4,0c-0.2,0-0.3-0.1-0.4-0.2c-0.1-0.1-0.1-0.2-0.1-0.3c0-0.2,0.2-0.4,0.6-0.5
			c0.4-0.1,0.9-0.1,1.5,0c0.3,0,0.6,0.1,0.9,0.2c0.2,0.1,0.4,0.1,0.5,0.2c0.1,0.1,0.2,0.2,0.3,0.3c0,0.1,0,0.2,0,0.4l-0.2,1.3
			c0,0.2,0,0.3,0.2,0.3c0.1,0,0.2,0,0.3-0.2l0.4,0c0,0.2-0.2,0.4-0.4,0.5c-0.2,0.1-0.5,0.1-0.8,0.1C33.5,76.9,33.2,76.7,33,76.4
			 M33,76.1l0.1-0.8c-0.4,0.1-0.7,0.2-0.9,0.3C32,75.6,32,75.7,32,75.8c0,0.1,0,0.2,0.1,0.2c0.1,0.1,0.2,0.1,0.3,0.1
			c0.1,0,0.2,0,0.3,0C32.8,76.2,32.9,76.1,33,76.1"/>
		<path class="st0" d="M37,75.1l0.1,1.1c0,0.2,0.1,0.3,0.1,0.3c0.1,0.1,0.2,0.1,0.4,0.1l0,0.4l-2.3,0.2l0-0.4l0.1,0
			c0.2,0,0.3-0.1,0.4-0.1c0.1-0.1,0.1-0.2,0.1-0.4l-0.1-1c0-0.2,0-0.3-0.1-0.4c-0.1-0.1-0.2-0.1-0.4-0.1l0-0.4l1.6-0.4
			c0,0.1,0.1,0.2,0.1,0.4c0.2-0.2,0.3-0.3,0.6-0.4c0.2-0.1,0.4-0.2,0.7-0.2c0.3,0,0.5,0,0.7,0.1c0.2,0.1,0.3,0.2,0.4,0.4
			c0.1-0.2,0.3-0.4,0.5-0.5c0.2-0.1,0.4-0.2,0.7-0.2c0.2,0,0.4,0,0.6,0.1c0.2,0.1,0.3,0.1,0.4,0.2c0.1,0.1,0.2,0.2,0.2,0.3
			c0,0.1,0.1,0.3,0.1,0.5l0.1,0.9c0,0.2,0.1,0.3,0.1,0.4c0.1,0.1,0.2,0.1,0.5,0.1l0,0.4l-2.2,0.2l0-0.4c0.2,0,0.3-0.1,0.4-0.1
			c0.1-0.1,0.1-0.2,0.1-0.4l-0.1-1c0-0.2-0.1-0.3-0.1-0.4c-0.1-0.1-0.2-0.1-0.4-0.1c-0.1,0-0.3,0.1-0.4,0.1
			c-0.1,0.1-0.2,0.2-0.3,0.4l0.1,1.1c0,0.2,0,0.3,0.1,0.3c0.1,0.1,0.2,0.1,0.4,0.1l0,0.4L38,76.9l0-0.4c0.2,0,0.3-0.1,0.4-0.1
			c0.1-0.1,0.1-0.2,0.1-0.4l-0.1-1c0-0.2-0.1-0.3-0.1-0.4c-0.1-0.1-0.2-0.1-0.4-0.1c-0.1,0-0.3,0.1-0.4,0.1
			C37.3,74.8,37.2,74.9,37,75.1"/>
		<path class="st0" d="M43.4,77.7l-0.1-0.4c0.3-0.1,0.5-0.2,0.7-0.4c0.2-0.2,0.3-0.4,0.3-0.6c0-0.1-0.1-0.2-0.2-0.1
			c0,0-0.1,0-0.2,0.1c-0.1,0-0.1,0.1-0.2,0.1c-0.2,0-0.3,0-0.5,0c-0.2-0.1-0.3-0.2-0.3-0.4c0-0.2,0-0.3,0.1-0.5
			c0.1-0.2,0.3-0.3,0.6-0.3c0.3-0.1,0.6,0,0.8,0.1c0.2,0.1,0.4,0.4,0.4,0.7c0.1,0.4,0,0.8-0.3,1.1C44.3,77.3,43.9,77.6,43.4,77.7"/>
		<path class="st0" d="M48.2,73.6l0,0.3c0,0.2,0,0.3,0,0.4c0,0.1,0.1,0.2,0.2,0.2c0.1,0,0.3,0,0.5-0.1l0.2,0.3l-1.9,0.8L47,75.1
			c0.4-0.2,0.6-0.5,0.6-1.1l0.3-4.1l0.5-0.2l3.3,2.5c0.3,0.2,0.6,0.4,0.7,0.4c0.2,0,0.3,0,0.5-0.1l0.2,0.4l-2.8,1.3L50,73.7
			c0.3-0.1,0.4-0.2,0.4-0.3c0-0.1,0.1-0.1,0-0.2c0-0.1-0.1-0.1-0.2-0.2L50.2,73l-0.3-0.2L48.2,73.6z M48.2,73.1l1.4-0.6l-1.3-1
			L48.2,73.1z"/>
		<path class="st0" d="M52.5,67.4l2.1,3.3c0.1,0.1,0.2,0.2,0.3,0.2c0.1,0,0.3-0.1,0.5-0.2l0.2,0.3l-2.4,1.5l-0.2-0.3
			c0.2-0.1,0.3-0.2,0.4-0.3c0.1-0.1,0-0.2-0.1-0.4l-1.5-2.4c-0.1-0.2-0.2-0.2-0.3-0.2c-0.1,0-0.3,0.1-0.5,0.2l-0.2-0.3L52.5,67.4z"
			/>
		<path class="st0" d="M57.8,68.9c-0.1,0.2-0.2,0.5-0.4,0.7c-0.1,0.2-0.3,0.4-0.5,0.6c-0.3,0.2-0.5,0.3-0.7,0.4
			c-0.2,0-0.4,0-0.5-0.2c-0.2-0.2-0.2-0.5,0-0.8c0.1-0.4,0.5-0.9,1.1-1.7l-0.2-0.2c-0.1-0.1-0.2-0.2-0.4-0.2c-0.1,0-0.2,0.1-0.4,0.2
			c-0.3,0.2-0.4,0.5-0.3,0.7c0.1,0.1,0.1,0.3,0.1,0.4c0,0.1-0.1,0.2-0.3,0.3c-0.1,0.1-0.3,0.2-0.4,0.2c-0.1,0-0.2,0-0.3-0.1
			c-0.1-0.2-0.1-0.4,0.1-0.8c0.2-0.4,0.5-0.7,1-1.1c0.3-0.2,0.5-0.4,0.7-0.5c0.2-0.1,0.4-0.2,0.6-0.2c0.2,0,0.3,0,0.4,0
			c0.1,0,0.2,0.1,0.3,0.3l0.8,1c0.1,0.2,0.3,0.2,0.4,0.1c0.1-0.1,0.1-0.2,0.1-0.3l0.3-0.2c0.1,0.2,0.2,0.4,0.1,0.6
			c-0.1,0.2-0.3,0.4-0.5,0.6C58.5,68.8,58.1,69,57.8,68.9 M57.5,68.7L57,68.1c-0.2,0.4-0.4,0.6-0.4,0.8c0,0.2,0,0.3,0.1,0.4
			c0.1,0.1,0.1,0.1,0.2,0.1c0.1,0,0.2,0,0.3-0.1c0.1-0.1,0.2-0.2,0.2-0.2C57.4,68.9,57.5,68.8,57.5,68.7"/>
		<path class="st0" d="M60.8,65.9l-0.2,0.9l-0.2,0.3l-2.9-2.5c-0.1-0.1-0.2-0.2-0.3-0.2c-0.1,0-0.2,0.1-0.4,0.3l-0.3-0.2l1.2-1.8
			l1.6,1.4c0-0.2,0.1-0.4,0.2-0.6c0.1-0.2,0.2-0.4,0.4-0.6c0.3-0.4,0.7-0.7,1.2-0.8c0.4-0.1,0.8,0,1.2,0.3c0.4,0.3,0.5,0.7,0.5,1.2
			c0,0.5-0.2,0.9-0.6,1.3c-0.2,0.2-0.4,0.4-0.6,0.5C61.3,65.8,61,65.9,60.8,65.9 M60.7,65.5c0.2,0,0.3,0,0.5-0.1
			c0.1-0.1,0.3-0.2,0.4-0.3c0.2-0.2,0.2-0.4,0.2-0.6c0-0.2-0.2-0.4-0.5-0.7c-0.3-0.2-0.5-0.3-0.7-0.4c-0.2,0-0.4,0.1-0.6,0.3
			c-0.1,0.1-0.2,0.2-0.2,0.4c-0.1,0.1-0.1,0.3-0.1,0.5L60.7,65.5z"/>
		<path class="st0" d="M64.6,61c0,0.3-0.1,0.5-0.1,0.7c-0.1,0.2-0.2,0.5-0.3,0.7c-0.2,0.3-0.4,0.5-0.6,0.6c-0.2,0.1-0.4,0.1-0.5,0
			c-0.2-0.1-0.3-0.4-0.3-0.8c0-0.4,0.2-1.1,0.5-2L63,60.1c-0.2-0.1-0.3-0.1-0.4,0c-0.1,0.1-0.2,0.2-0.3,0.3
			c-0.2,0.3-0.2,0.6-0.1,0.7c0.1,0.1,0.2,0.2,0.2,0.3c0,0.1,0,0.3-0.1,0.4c-0.1,0.1-0.2,0.2-0.3,0.3c-0.1,0.1-0.2,0-0.3,0
			c-0.2-0.1-0.2-0.4-0.2-0.8c0.1-0.4,0.3-0.9,0.6-1.4c0.2-0.3,0.4-0.5,0.5-0.7c0.2-0.2,0.3-0.3,0.5-0.4c0.2-0.1,0.3-0.1,0.4-0.1
			c0.1,0,0.2,0.1,0.4,0.1l1.1,0.7c0.2,0.1,0.3,0.1,0.4,0c0.1-0.1,0.1-0.2,0-0.3l0.2-0.3c0.2,0.1,0.3,0.3,0.3,0.6
			c0,0.2-0.1,0.5-0.3,0.8C65.2,60.7,64.9,60.9,64.6,61 M64.3,60.8l-0.7-0.4c-0.1,0.4-0.2,0.7-0.1,0.9c0,0.2,0.1,0.3,0.2,0.3
			c0.1,0,0.2,0.1,0.3,0c0.1,0,0.2-0.1,0.2-0.2c0.1-0.1,0.1-0.2,0.1-0.3C64.3,61.1,64.3,61,64.3,60.8"/>
		<path class="st0" d="M65.1,56.7l1,0.4c0.2,0.1,0.3,0.1,0.4,0c0.1,0,0.2-0.1,0.2-0.3l0.3,0.1l-0.8,2.1L65.9,59l0-0.1
			c0.1-0.2,0.1-0.3,0.1-0.4c0-0.1-0.1-0.1-0.3-0.2l-0.9-0.3c-0.2-0.1-0.3-0.1-0.4,0c-0.1,0-0.2,0.2-0.2,0.4l-0.3-0.1l0.4-1.6
			c0.1,0,0.3,0,0.4,0.1c-0.1-0.2-0.2-0.5-0.2-0.7c0-0.2,0-0.5,0.1-0.7c0.1-0.3,0.2-0.5,0.4-0.6c0.2-0.1,0.3-0.2,0.6-0.2
			c-0.1-0.2-0.2-0.4-0.2-0.7c0-0.2,0-0.5,0.1-0.7c0.1-0.2,0.2-0.4,0.3-0.5c0.1-0.1,0.3-0.2,0.4-0.3c0.1,0,0.3-0.1,0.4-0.1
			c0.1,0,0.3,0.1,0.5,0.1l0.8,0.3c0.2,0.1,0.3,0.1,0.4,0c0.1,0,0.2-0.2,0.2-0.4l0.3,0.1l-0.8,2.1l-0.3-0.1c0.1-0.2,0.1-0.3,0-0.4
			c0-0.1-0.1-0.1-0.3-0.2l-0.9-0.4c-0.2-0.1-0.3-0.1-0.4,0c-0.1,0-0.2,0.1-0.3,0.3c-0.1,0.1-0.1,0.3,0,0.4c0,0.2,0.1,0.3,0.2,0.5
			l1,0.4c0.2,0.1,0.3,0.1,0.4,0c0.1,0,0.2-0.1,0.2-0.3l0.3,0.1l-0.8,2l-0.3-0.1c0.1-0.2,0.1-0.3,0-0.4c0-0.1-0.1-0.1-0.3-0.2
			l-0.9-0.4c-0.2-0.1-0.3-0.1-0.4,0c-0.1,0-0.2,0.1-0.3,0.3c0,0.1-0.1,0.3,0,0.4C65,56.4,65,56.6,65.1,56.7"/>
		<path class="st0" d="M69,49.3c0.1,0.2,0.1,0.5,0.1,0.7c0,0.3,0,0.5,0,0.8c-0.1,0.3-0.2,0.6-0.3,0.7c-0.1,0.2-0.3,0.2-0.5,0.2
			c-0.2,0-0.4-0.3-0.6-0.6c-0.1-0.4-0.2-1-0.3-2l-0.3,0c-0.2,0-0.3,0-0.4,0.1c-0.1,0.1-0.1,0.2-0.1,0.4c-0.1,0.4,0,0.6,0.2,0.7
			c0.1,0.1,0.2,0.1,0.3,0.2c0,0.1,0.1,0.2,0,0.4c0,0.2-0.1,0.3-0.2,0.4c-0.1,0.1-0.2,0.1-0.3,0.1c-0.2,0-0.4-0.3-0.4-0.6
			c-0.1-0.4-0.1-0.9,0-1.5c0.1-0.3,0.1-0.6,0.2-0.9c0.1-0.2,0.2-0.4,0.3-0.5c0.1-0.1,0.2-0.2,0.3-0.2c0.1,0,0.2,0,0.4,0l1.3,0.2
			c0.2,0,0.3,0,0.3-0.2c0-0.1,0-0.2-0.1-0.3l0.1-0.4c0.2,0,0.4,0.2,0.5,0.4c0.1,0.2,0.1,0.5,0,0.8C69.4,48.8,69.3,49.1,69,49.3
			 M68.6,49.3l-0.8-0.1c0.1,0.4,0.1,0.7,0.2,0.9c0.1,0.1,0.2,0.2,0.3,0.3c0.1,0,0.2,0,0.3-0.1c0.1-0.1,0.1-0.2,0.2-0.3
			c0-0.1,0-0.2,0-0.3C68.7,49.5,68.7,49.4,68.6,49.3"/>
	</g>
	<g>
		<g>
			<g>
				<g>
					<g>
						<path class="st0" d="M96.9,46.9c0,3.2-2.5,5.3-6.4,5.3h-8V33.9h7.8c3.2,0,5.5,2,5.5,4.8c0,1.7-0.8,2.9-2.5,3.8
							C95.5,43.1,96.9,44.8,96.9,46.9z M93.2,46.7c0-1.5-1.3-2.5-2.9-2.5H86v5h4.2C92,49.2,93.2,48.3,93.2,46.7z M86,41.3h3.5
							c1.7,0,2.8-0.8,2.8-2.2s-1.1-2.2-2.7-2.2h-3.5L86,41.3z"/>
						<path class="st0" d="M100.1,33.9h3.5v18.3h-3.5V33.9z"/>
						<path class="st0" d="M115.1,45.5h-3.8v6.7h-3.5V33.9h7.7c3.9,0,6.4,2.4,6.4,5.7c0,2.4-1.3,4.2-3.4,5.2l4.8,7.4h-4.1
							L115.1,45.5z M111.3,42.5h3.5c2.1,0,3.5-1.1,3.5-2.9c0-1.7-1.3-2.9-3.2-2.9h-3.8V42.5z"/>
						<path class="st0" d="M143.3,52.2l-0.7-12.5L137,52.2h-2l-5.6-12.5l-0.7,12.5h-3.5l1.3-18.3h3.8l5.6,12.7l5.7-12.7h3.8
							l1.3,18.3H143.3z"/>
						<path class="st0" d="M150.6,34h3.5v18.3h-3.5V34z"/>
						<path class="st0" d="M158.4,34h2.2l11.5,12.5V34.1h3.5v18.3h-2.1L162.1,40v12.3h-3.5L158.4,34z"/>
						<path class="st0" d="M197.2,43.2c0,5.6-3.5,9.4-9.1,9.4s-9.4-3.8-9.4-9.4s3.8-9.4,9.4-9.4c2.7,0,4.8,0.7,6.4,2.1l-2.2,2.2
							c-1-0.8-2.4-1.3-4.1-1.3c-3.5,0-5.9,2.5-5.9,6.4s2.4,6.4,5.9,6.6c3.1,0,5-1.8,5.3-4.8h-4.8v-2.9h8.4
							C197.2,42.4,197.2,42.8,197.2,43.2z"/>
						<path class="st0" d="M216.8,34.1v18.3h-3.5v-7.8h-9.8v7.8H200V34.1h3.5v7.6h9.8v-7.6H216.8z"/>
						<path class="st0" d="M232.6,48.8h-8.4l-1.5,3.6h-3.8l7.8-18.3h3.2l7.8,18.3H234L232.6,48.8z M231.3,45.9l-3.1-7.4l-3.1,7.4
							H231.3z"/>
						<path class="st0" d="M257.3,52.5L256.6,40L251,52.5h-2L243.5,40l-0.7,12.5h-3.5l1.3-18.3h3.8l5.6,12.7l5.7-12.7h3.8l1.3,18.3
							H257.3z"/>
					</g>
					<g>
						<path class="st0" d="M82.2,64.2c0-5.7,3.8-9.5,9.4-9.5c3.1,0,5.3,1.1,7,3.1L97.3,59c-1.3-1.5-3.2-2.7-5.7-2.7
							c-4.5,0-7.6,3.2-7.6,8c0,4.8,2.9,8,7.4,8.1c2.8,0,4.9-1.3,6.3-3.2l1.3,1.3c-1.7,2.2-4.3,3.6-7.6,3.6
							C86,73.9,82.2,69.9,82.2,64.2z"/>
						<path class="st0" d="M102.5,55h2v18.6h-2V55z"/>
						<path class="st0" d="M121.2,56.7h-6v17.1h-2V56.7h-6v-1.5h14L121.2,56.7z"/>
						<path class="st0" d="M137.6,55.1l-6.9,11.1v7.6h-2v-7.6l-6.9-11.1h2.1l5.7,9.4l5.7-9.4H137.6z"/>
						<path class="st0" d="M145.3,64.3c0-5.7,3.8-9.5,9.4-9.5c3.1,0,5.3,1.1,7,3.1l-1.3,1.3c-1.3-1.5-3.2-2.7-5.7-2.7
							c-4.5,0-7.6,3.2-7.6,8s2.9,8,7.4,8.1c2.8,0,4.9-1.3,6.3-3.2l1.3,1.3c-1.7,2.2-4.3,3.6-7.6,3.6C149,74,145.3,70.1,145.3,64.3z"
							/>
						<path class="st0" d="M164,64.5c0-5.7,3.8-9.5,9.4-9.5s9.2,3.9,9.2,9.7s-3.8,9.5-9.4,9.5C167.8,74,164,70.2,164,64.5z
							 M180.7,64.5c0-4.8-2.9-8-7.3-8c-4.5,0-7.3,3.2-7.4,8c0,4.8,2.9,8,7.3,8C177.7,72.5,180.7,69.2,180.7,64.5z"/>
						<path class="st0" d="M186.3,67.1v-12h2V67c0,3.2,2.2,5.5,5.7,5.5s5.7-2.1,5.7-5.3V55.3h2v12c0,4.2-3.1,6.9-7.7,6.9
							C189.3,74,186.3,71.3,186.3,67.1z"/>
						<path class="st0" d="M206.5,55.3h1.3l12.9,15.4V55.4h2V74h-1.3l-12.9-15.4v15.2h-2V55.3z"/>
						<path class="st0" d="M226.4,64.5c0-5.7,3.8-9.5,9.4-9.5c3.1,0,5.3,1.1,7,3.1l-1.3,1.3c-1.3-1.5-3.2-2.7-5.7-2.7
							c-4.5,0-7.6,3.2-7.6,8c0,4.8,2.9,8,7.4,8.1c2.8,0,4.9-1.3,6.3-3.2l1.3,1.3c-1.7,2.2-4.3,3.6-7.6,3.6
							C230.2,74.1,226.4,70.2,226.4,64.5z"/>
						<path class="st0" d="M246.7,55.3h2v18.6h-2V55.3z"/>
						<path class="st0" d="M264.5,72.3v1.5h-10.8V55.3h2v17.1H264.5z"/>
					</g>
				</g>
				<path class="st0" d="M223.6,30.1L223.6,30.1c0.1,0,0.4,0,0.6,0h0.1h0.1c0.3,0,0.4,0,0.7,0v-1.5H200v-6.3l-13.6-5.6V0l-10.5,4.3
					v19.3H173V9.4h-12.9v12.2l-2.8-2.8l-9.5,9.5H118v1.5c0.3,0,0.4,0,0.7,0c0.3,0,0.6,0,0.8,0l0,0h29l9-9l2.8,2.8v6.2h8.3l-6.7-6.7
					V10.9h9.9v14.3h6V5.3l7.4-3.1v13.8l-4.5-1.8v15.8h6V18.5l12,5v6.7L223.6,30.1z M164.6,28.4h-3.2v-3.2L164.6,28.4z M184.9,28.4
					h-2.9v-12l2.9,1.3V28.4z"/>
			</g>
		</g>
	</g>
</g>
</svg>
